%TF.GenerationSoftware,KiCad,Pcbnew,9.0.7*%
%TF.CreationDate,2026-03-30T19:36:55+02:00*%
%TF.ProjectId,something in kicad,736f6d65-7468-4696-9e67-20696e206b69,rev?*%
%TF.SameCoordinates,Original*%
%TF.FileFunction,Legend,Top*%
%TF.FilePolarity,Positive*%
%FSLAX46Y46*%
G04 Gerber Fmt 4.6, Leading zero omitted, Abs format (unit mm)*
G04 Created by KiCad (PCBNEW 9.0.7) date 2026-03-30 19:36:55*
%MOMM*%
%LPD*%
G01*
G04 APERTURE LIST*
%ADD10C,0.120000*%
G04 APERTURE END LIST*
D10*
%TO.C,D3*%
X169290000Y-74736000D02*
X169290000Y-74580000D01*
X169290000Y-72420000D02*
X169290000Y-72264000D01*
X169290000Y-74735516D02*
G75*
G02*
X166058563Y-74580000I-1560000J1235516D01*
G01*
X168770961Y-74580000D02*
G75*
G02*
X166689039Y-74580000I-1040961J1080000D01*
G01*
X166689039Y-72420000D02*
G75*
G02*
X168770961Y-72420000I1040961J-1080000D01*
G01*
X166058563Y-72420000D02*
G75*
G02*
X169290000Y-72264484I1671437J-1080000D01*
G01*
%TO.C,U1*%
X160800000Y-54680000D02*
G75*
G02*
X158800000Y-54680000I-1000000J0D01*
G01*
X162050000Y-75120000D02*
X162050000Y-54680000D01*
X162050000Y-54680000D02*
X160800000Y-54680000D01*
X158800000Y-54680000D02*
X157550000Y-54680000D01*
X157550000Y-75120000D02*
X162050000Y-75120000D01*
X157550000Y-54680000D02*
X157550000Y-75120000D01*
%TO.C,U2*%
X154660000Y-48295000D02*
G75*
G02*
X154660000Y-50295000I0J-1000000D01*
G01*
X164940000Y-46645000D02*
X154660000Y-46645000D01*
X154660000Y-46645000D02*
X154660000Y-48295000D01*
X154660000Y-50295000D02*
X154660000Y-51945000D01*
X164940000Y-51945000D02*
X164940000Y-46645000D01*
X154660000Y-51945000D02*
X164940000Y-51945000D01*
%TO.C,R2*%
X156540000Y-79030000D02*
X156540000Y-79360000D01*
X156540000Y-81770000D02*
X156540000Y-81440000D01*
X163080000Y-79030000D02*
X156540000Y-79030000D01*
X163080000Y-79360000D02*
X163080000Y-79030000D01*
X163080000Y-81440000D02*
X163080000Y-81770000D01*
X163080000Y-81770000D02*
X156540000Y-81770000D01*
%TO.C,J2*%
X164295000Y-88810000D02*
X164295000Y-88930000D01*
X164295000Y-86270000D02*
X164295000Y-87600000D01*
X162965000Y-86270000D02*
X164295000Y-86270000D01*
X161635000Y-88930000D02*
X164295000Y-88930000D01*
X161635000Y-88810000D02*
X161635000Y-88930000D01*
%TO.C,D10*%
X153401437Y-62280000D02*
G75*
G02*
X150170000Y-62435516I-1671437J1080000D01*
G01*
X152770961Y-62280000D02*
G75*
G02*
X150689039Y-62280000I-1040961J1080000D01*
G01*
X150689039Y-60120000D02*
G75*
G02*
X152770961Y-60120000I1040961J-1080000D01*
G01*
X150170000Y-59964484D02*
G75*
G02*
X153401437Y-60120000I1560000J-1235516D01*
G01*
X150170000Y-62280000D02*
X150170000Y-62436000D01*
X150170000Y-59964000D02*
X150170000Y-60120000D01*
%TO.C,J1*%
X157795000Y-86120000D02*
X160445000Y-86120000D01*
X160445000Y-88880000D02*
X160445000Y-86120000D01*
X157795000Y-88880000D02*
X157795000Y-86120000D01*
X157795000Y-88880000D02*
X160445000Y-88880000D01*
X156525000Y-88880000D02*
X155145000Y-88880000D01*
X155145000Y-88880000D02*
X155145000Y-87500000D01*
%TO.C,D7*%
X166028563Y-86120000D02*
G75*
G02*
X169260000Y-85964484I1671437J-1080000D01*
G01*
X166659039Y-86120000D02*
G75*
G02*
X168740961Y-86120000I1040961J-1080000D01*
G01*
X168740961Y-88280000D02*
G75*
G02*
X166659039Y-88280000I-1040961J1080000D01*
G01*
X169260000Y-88435516D02*
G75*
G02*
X166028563Y-88280000I-1560000J1235516D01*
G01*
X169260000Y-86120000D02*
X169260000Y-85964000D01*
X169260000Y-88436000D02*
X169260000Y-88280000D01*
%TO.C,D5*%
X153501437Y-37880000D02*
G75*
G02*
X150270000Y-38035516I-1671437J1080000D01*
G01*
X152870961Y-37880000D02*
G75*
G02*
X150789039Y-37880000I-1040961J1080000D01*
G01*
X150789039Y-35720000D02*
G75*
G02*
X152870961Y-35720000I1040961J-1080000D01*
G01*
X150270000Y-35564484D02*
G75*
G02*
X153501437Y-35720000I1560000J-1235516D01*
G01*
X150270000Y-37880000D02*
X150270000Y-38036000D01*
X150270000Y-35564000D02*
X150270000Y-35720000D01*
%TO.C,D4*%
X166128563Y-48120000D02*
G75*
G02*
X169360000Y-47964484I1671437J-1080000D01*
G01*
X166759039Y-48120000D02*
G75*
G02*
X168840961Y-48120000I1040961J-1080000D01*
G01*
X168840961Y-50280000D02*
G75*
G02*
X166759039Y-50280000I-1040961J1080000D01*
G01*
X169360000Y-50435516D02*
G75*
G02*
X166128563Y-50280000I-1560000J1235516D01*
G01*
X169360000Y-48120000D02*
X169360000Y-47964000D01*
X169360000Y-50436000D02*
X169360000Y-50280000D01*
%TO.C,D6*%
X153671437Y-87980000D02*
G75*
G02*
X150440000Y-88135516I-1671437J1080000D01*
G01*
X153040961Y-87980000D02*
G75*
G02*
X150959039Y-87980000I-1040961J1080000D01*
G01*
X150959039Y-85820000D02*
G75*
G02*
X153040961Y-85820000I1040961J-1080000D01*
G01*
X150440000Y-85664484D02*
G75*
G02*
X153671437Y-85820000I1560000J-1235516D01*
G01*
X150440000Y-87980000D02*
X150440000Y-88136000D01*
X150440000Y-85664000D02*
X150440000Y-85820000D01*
%TO.C,RV1*%
X157220000Y-34790000D02*
X156980000Y-34460000D01*
X157460000Y-34460000D01*
X157220000Y-34790000D01*
G36*
X157220000Y-34790000D02*
G01*
X156980000Y-34460000D01*
X157460000Y-34460000D01*
X157220000Y-34790000D01*
G37*
X164720000Y-34790000D02*
X164720000Y-40010000D01*
X157620000Y-34790000D02*
X164720000Y-34790000D01*
X154800000Y-40010000D02*
X164720000Y-40010000D01*
X154800000Y-34790000D02*
X156920000Y-34790000D01*
X154800000Y-34790000D02*
X154800000Y-40010000D01*
%TO.C,D8*%
X166028563Y-60120000D02*
G75*
G02*
X169260000Y-59964484I1671437J-1080000D01*
G01*
X166659039Y-60120000D02*
G75*
G02*
X168740961Y-60120000I1040961J-1080000D01*
G01*
X168740961Y-62280000D02*
G75*
G02*
X166659039Y-62280000I-1040961J1080000D01*
G01*
X169260000Y-62435516D02*
G75*
G02*
X166028563Y-62280000I-1560000J1235516D01*
G01*
X169260000Y-60120000D02*
X169260000Y-59964000D01*
X169260000Y-62436000D02*
X169260000Y-62280000D01*
%TO.C,D2*%
X153601437Y-74480000D02*
G75*
G02*
X150370000Y-74635516I-1671437J1080000D01*
G01*
X152970961Y-74480000D02*
G75*
G02*
X150889039Y-74480000I-1040961J1080000D01*
G01*
X150889039Y-72320000D02*
G75*
G02*
X152970961Y-72320000I1040961J-1080000D01*
G01*
X150370000Y-72164484D02*
G75*
G02*
X153601437Y-72320000I1560000J-1235516D01*
G01*
X150370000Y-74480000D02*
X150370000Y-74636000D01*
X150370000Y-72164000D02*
X150370000Y-72320000D01*
%TO.C,D1*%
X153471437Y-50680000D02*
G75*
G02*
X150240000Y-50835516I-1671437J1080000D01*
G01*
X152840961Y-50680000D02*
G75*
G02*
X150759039Y-50680000I-1040961J1080000D01*
G01*
X150759039Y-48520000D02*
G75*
G02*
X152840961Y-48520000I1040961J-1080000D01*
G01*
X150240000Y-48364484D02*
G75*
G02*
X153471437Y-48520000I1560000J-1235516D01*
G01*
X150240000Y-50680000D02*
X150240000Y-50836000D01*
X150240000Y-48364000D02*
X150240000Y-48520000D01*
%TO.C,C1*%
X162470000Y-85170000D02*
X157230000Y-85170000D01*
X162470000Y-82430000D02*
X162470000Y-85170000D01*
X157230000Y-85170000D02*
X157230000Y-82430000D01*
X157230000Y-82430000D02*
X162470000Y-82430000D01*
%TO.C,C2*%
X155730000Y-41030000D02*
X163470000Y-41030000D01*
X155730000Y-43770000D02*
X155730000Y-41030000D01*
X163470000Y-41030000D02*
X163470000Y-43770000D01*
X163470000Y-43770000D02*
X155730000Y-43770000D01*
%TO.C,D9*%
X165928563Y-35820000D02*
G75*
G02*
X169160000Y-35664484I1671437J-1080000D01*
G01*
X166559039Y-35820000D02*
G75*
G02*
X168640961Y-35820000I1040961J-1080000D01*
G01*
X168640961Y-37980000D02*
G75*
G02*
X166559039Y-37980000I-1040961J1080000D01*
G01*
X169160000Y-38135516D02*
G75*
G02*
X165928563Y-37980000I-1560000J1235516D01*
G01*
X169160000Y-35820000D02*
X169160000Y-35664000D01*
X169160000Y-38136000D02*
X169160000Y-37980000D01*
%TO.C,R1*%
X156540000Y-75630000D02*
X156540000Y-75960000D01*
X156540000Y-78370000D02*
X156540000Y-78040000D01*
X163080000Y-75630000D02*
X156540000Y-75630000D01*
X163080000Y-75960000D02*
X163080000Y-75630000D01*
X163080000Y-78040000D02*
X163080000Y-78370000D01*
X163080000Y-78370000D02*
X156540000Y-78370000D01*
%TD*%
M02*
