M48
; DRILL file {KiCad 9.0.7} date 2026-03-30T19:37:16+0200
; FORMAT={-:-/ absolute / metric / decimal}
; #@! TF.CreationDate,2026-03-30T19:37:16+02:00
; #@! TF.GenerationSoftware,Kicad,Pcbnew,9.0.7
; #@! TF.FileFunction,Plated,1,2,PTH
FMAT,2
METRIC
; #@! TA.AperFunction,Plated,PTH,ViaDrill
T1C0.300
; #@! TA.AperFunction,Plated,PTH,ComponentDrill
T2C0.800
; #@! TA.AperFunction,Plated,PTH,ComponentDrill
T3C0.850
; #@! TA.AperFunction,Plated,PTH,ComponentDrill
T4C0.900
; #@! TA.AperFunction,Plated,PTH,ComponentDrill
T5C1.000
%
G90
G05
T1
X162.1Y-40.3
X164.2Y-39.2
X165.6Y-77.0
X168.97Y-77.0
T2
X155.99Y-45.485
X155.99Y-53.105
X155.99Y-56.01
X155.99Y-58.55
X155.99Y-61.09
X155.99Y-63.63
X155.99Y-66.17
X155.99Y-68.71
X155.99Y-71.25
X155.99Y-73.79
X156.0Y-77.0
X156.0Y-80.4
X158.53Y-45.485
X158.53Y-53.105
X158.6Y-83.8
X161.07Y-45.485
X161.07Y-53.105
X161.1Y-83.8
X163.61Y-45.485
X163.61Y-53.105
X163.61Y-56.01
X163.61Y-58.55
X163.61Y-61.09
X163.61Y-63.63
X163.61Y-66.17
X163.61Y-68.71
X163.61Y-71.25
X163.61Y-73.79
X163.62Y-77.0
X163.62Y-80.4
T3
X157.22Y-37.4
X159.76Y-37.4
X162.3Y-37.4
T4
X150.46Y-61.2
X150.53Y-49.6
X150.56Y-36.8
X150.66Y-73.4
X150.73Y-86.9
X153.0Y-61.2
X153.07Y-49.6
X153.1Y-36.8
X153.2Y-73.4
X153.27Y-86.9
X166.33Y-36.9
X166.43Y-61.2
X166.43Y-87.2
X166.46Y-73.5
X166.53Y-49.2
X168.87Y-36.9
X168.97Y-61.2
X168.97Y-87.2
X169.0Y-73.5
X169.07Y-49.2
T5
X156.525Y-87.5
X157.1Y-42.4
X159.065Y-87.5
X162.1Y-42.4
X162.965Y-87.6
M30
