%TF.GenerationSoftware,KiCad,Pcbnew,9.0.7*%
%TF.CreationDate,2026-03-30T19:36:55+02:00*%
%TF.ProjectId,something in kicad,736f6d65-7468-4696-9e67-20696e206b69,rev?*%
%TF.SameCoordinates,Original*%
%TF.FileFunction,Soldermask,Bot*%
%TF.FilePolarity,Negative*%
%FSLAX46Y46*%
G04 Gerber Fmt 4.6, Leading zero omitted, Abs format (unit mm)*
G04 Created by KiCad (PCBNEW 9.0.7) date 2026-03-30 19:36:55*
%MOMM*%
%LPD*%
G01*
G04 APERTURE LIST*
G04 Aperture macros list*
%AMRoundRect*
0 Rectangle with rounded corners*
0 $1 Rounding radius*
0 $2 $3 $4 $5 $6 $7 $8 $9 X,Y pos of 4 corners*
0 Add a 4 corners polygon primitive as box body*
4,1,4,$2,$3,$4,$5,$6,$7,$8,$9,$2,$3,0*
0 Add four circle primitives for the rounded corners*
1,1,$1+$1,$2,$3*
1,1,$1+$1,$4,$5*
1,1,$1+$1,$6,$7*
1,1,$1+$1,$8,$9*
0 Add four rect primitives between the rounded corners*
20,1,$1+$1,$2,$3,$4,$5,0*
20,1,$1+$1,$4,$5,$6,$7,0*
20,1,$1+$1,$6,$7,$8,$9,0*
20,1,$1+$1,$8,$9,$2,$3,0*%
G04 Aperture macros list end*
%ADD10R,1.800000X1.800000*%
%ADD11C,1.800000*%
%ADD12O,2.400000X1.600000*%
%ADD13RoundRect,0.250000X-0.950000X-0.550000X0.950000X-0.550000X0.950000X0.550000X-0.950000X0.550000X0*%
%ADD14C,1.600000*%
%ADD15RoundRect,0.250000X0.550000X-0.550000X0.550000X0.550000X-0.550000X0.550000X-0.550000X-0.550000X0*%
%ADD16R,1.700000X1.700000*%
%ADD17C,1.700000*%
%ADD18C,1.650000*%
%ADD19RoundRect,0.412500X-0.412500X-0.412500X0.412500X-0.412500X0.412500X0.412500X-0.412500X0.412500X0*%
%ADD20C,2.000000*%
G04 APERTURE END LIST*
D10*
%TO.C,D3*%
X169000000Y-73500000D03*
D11*
X166460000Y-73500000D03*
%TD*%
D12*
%TO.C,U1*%
X163610000Y-56010000D03*
X163610000Y-58550000D03*
X163610000Y-61090000D03*
X163610000Y-63630000D03*
X163610000Y-66170000D03*
X163610000Y-68710000D03*
X163610000Y-71250000D03*
X163610000Y-73790000D03*
X155990000Y-73790000D03*
X155990000Y-71250000D03*
X155990000Y-68710000D03*
X155990000Y-66170000D03*
X155990000Y-63630000D03*
X155990000Y-61090000D03*
X155990000Y-58550000D03*
D13*
X155990000Y-56010000D03*
%TD*%
D14*
%TO.C,U2*%
X155990000Y-45485000D03*
X158530000Y-45485000D03*
X161070000Y-45485000D03*
X163610000Y-45485000D03*
X163610000Y-53105000D03*
X161070000Y-53105000D03*
X158530000Y-53105000D03*
D15*
X155990000Y-53105000D03*
%TD*%
D14*
%TO.C,R2*%
X156000000Y-80400000D03*
X163620000Y-80400000D03*
%TD*%
D16*
%TO.C,J2*%
X162965000Y-87600000D03*
%TD*%
D11*
%TO.C,D10*%
X153000000Y-61200000D03*
D10*
X150460000Y-61200000D03*
%TD*%
D17*
%TO.C,J1*%
X159065000Y-87500000D03*
D16*
X156525000Y-87500000D03*
%TD*%
D11*
%TO.C,D7*%
X166430000Y-87200000D03*
D10*
X168970000Y-87200000D03*
%TD*%
D11*
%TO.C,D5*%
X153100000Y-36800000D03*
D10*
X150560000Y-36800000D03*
%TD*%
D11*
%TO.C,D4*%
X166530000Y-49200000D03*
D10*
X169070000Y-49200000D03*
%TD*%
D11*
%TO.C,D6*%
X153270000Y-86900000D03*
D10*
X150730000Y-86900000D03*
%TD*%
D18*
%TO.C,RV1*%
X162300000Y-37400000D03*
X159760000Y-37400000D03*
D19*
X157220000Y-37400000D03*
%TD*%
D11*
%TO.C,D8*%
X166430000Y-61200000D03*
D10*
X168970000Y-61200000D03*
%TD*%
D11*
%TO.C,D2*%
X153200000Y-73400000D03*
D10*
X150660000Y-73400000D03*
%TD*%
D11*
%TO.C,D1*%
X153070000Y-49600000D03*
D10*
X150530000Y-49600000D03*
%TD*%
D14*
%TO.C,C1*%
X161100000Y-83800000D03*
X158600000Y-83800000D03*
%TD*%
D20*
%TO.C,C2*%
X157100000Y-42400000D03*
X162100000Y-42400000D03*
%TD*%
D11*
%TO.C,D9*%
X166330000Y-36900000D03*
D10*
X168870000Y-36900000D03*
%TD*%
D14*
%TO.C,R1*%
X156000000Y-77000000D03*
X163620000Y-77000000D03*
%TD*%
M02*
