%TF.GenerationSoftware,KiCad,Pcbnew,9.0.7*%
%TF.CreationDate,2026-03-30T19:36:55+02:00*%
%TF.ProjectId,something in kicad,736f6d65-7468-4696-9e67-20696e206b69,rev?*%
%TF.SameCoordinates,Original*%
%TF.FileFunction,Copper,L2,Bot*%
%TF.FilePolarity,Positive*%
%FSLAX46Y46*%
G04 Gerber Fmt 4.6, Leading zero omitted, Abs format (unit mm)*
G04 Created by KiCad (PCBNEW 9.0.7) date 2026-03-30 19:36:55*
%MOMM*%
%LPD*%
G01*
G04 APERTURE LIST*
G04 Aperture macros list*
%AMRoundRect*
0 Rectangle with rounded corners*
0 $1 Rounding radius*
0 $2 $3 $4 $5 $6 $7 $8 $9 X,Y pos of 4 corners*
0 Add a 4 corners polygon primitive as box body*
4,1,4,$2,$3,$4,$5,$6,$7,$8,$9,$2,$3,0*
0 Add four circle primitives for the rounded corners*
1,1,$1+$1,$2,$3*
1,1,$1+$1,$4,$5*
1,1,$1+$1,$6,$7*
1,1,$1+$1,$8,$9*
0 Add four rect primitives between the rounded corners*
20,1,$1+$1,$2,$3,$4,$5,0*
20,1,$1+$1,$4,$5,$6,$7,0*
20,1,$1+$1,$6,$7,$8,$9,0*
20,1,$1+$1,$8,$9,$2,$3,0*%
G04 Aperture macros list end*
%TA.AperFunction,ComponentPad*%
%ADD10R,1.800000X1.800000*%
%TD*%
%TA.AperFunction,ComponentPad*%
%ADD11C,1.800000*%
%TD*%
%TA.AperFunction,ComponentPad*%
%ADD12O,2.400000X1.600000*%
%TD*%
%TA.AperFunction,ComponentPad*%
%ADD13RoundRect,0.250000X-0.950000X-0.550000X0.950000X-0.550000X0.950000X0.550000X-0.950000X0.550000X0*%
%TD*%
%TA.AperFunction,ComponentPad*%
%ADD14C,1.600000*%
%TD*%
%TA.AperFunction,ComponentPad*%
%ADD15RoundRect,0.250000X0.550000X-0.550000X0.550000X0.550000X-0.550000X0.550000X-0.550000X-0.550000X0*%
%TD*%
%TA.AperFunction,ComponentPad*%
%ADD16R,1.700000X1.700000*%
%TD*%
%TA.AperFunction,ComponentPad*%
%ADD17C,1.700000*%
%TD*%
%TA.AperFunction,ComponentPad*%
%ADD18C,1.650000*%
%TD*%
%TA.AperFunction,ComponentPad*%
%ADD19RoundRect,0.412500X-0.412500X-0.412500X0.412500X-0.412500X0.412500X0.412500X-0.412500X0.412500X0*%
%TD*%
%TA.AperFunction,ComponentPad*%
%ADD20C,2.000000*%
%TD*%
%TA.AperFunction,ViaPad*%
%ADD21C,0.600000*%
%TD*%
%TA.AperFunction,Conductor*%
%ADD22C,0.200000*%
%TD*%
G04 APERTURE END LIST*
D10*
%TO.P,D3,1,K*%
%TO.N,Net-(D1-K)*%
X169000000Y-73500000D03*
D11*
%TO.P,D3,2,A*%
%TO.N,Net-(D3-A)*%
X166460000Y-73500000D03*
%TD*%
D12*
%TO.P,U1,16,VDD*%
%TO.N,+5V*%
X163610000Y-56010000D03*
%TO.P,U1,15,Reset*%
%TO.N,GND*%
X163610000Y-58550000D03*
%TO.P,U1,14,CLK*%
%TO.N,OUT*%
X163610000Y-61090000D03*
%TO.P,U1,13,CKEN*%
%TO.N,GND*%
X163610000Y-63630000D03*
%TO.P,U1,12,Cout*%
%TO.N,unconnected-(U1-Cout-Pad12)*%
X163610000Y-66170000D03*
%TO.P,U1,11,Q9*%
%TO.N,Net-(D9-A)*%
X163610000Y-68710000D03*
%TO.P,U1,10,Q4*%
%TO.N,Net-(D4-A)*%
X163610000Y-71250000D03*
%TO.P,U1,9,Q8*%
%TO.N,Net-(D8-A)*%
X163610000Y-73790000D03*
%TO.P,U1,8,VSS*%
%TO.N,GND*%
X155990000Y-73790000D03*
%TO.P,U1,7,Q3*%
%TO.N,Net-(D3-A)*%
X155990000Y-71250000D03*
%TO.P,U1,6,Q7*%
%TO.N,Net-(D7-A)*%
X155990000Y-68710000D03*
%TO.P,U1,5,Q6*%
%TO.N,Net-(D6-A)*%
X155990000Y-66170000D03*
%TO.P,U1,4,Q2*%
%TO.N,Net-(D2-A)*%
X155990000Y-63630000D03*
%TO.P,U1,3,Q0*%
%TO.N,Net-(D10-A)*%
X155990000Y-61090000D03*
%TO.P,U1,2,Q1*%
%TO.N,Net-(D1-A)*%
X155990000Y-58550000D03*
D13*
%TO.P,U1,1,Q5*%
%TO.N,Net-(D5-A)*%
X155990000Y-56010000D03*
%TD*%
D14*
%TO.P,U2,8,VCC*%
%TO.N,+5V*%
X155990000Y-45485000D03*
%TO.P,U2,7,DISCH*%
%TO.N,Net-(U2-DISCH)*%
X158530000Y-45485000D03*
%TO.P,U2,6,THRES*%
%TO.N,Net-(U2-THRES)*%
X161070000Y-45485000D03*
%TO.P,U2,5,CONT*%
%TO.N,Net-(U2-CONT)*%
X163610000Y-45485000D03*
%TO.P,U2,4,~{RST}*%
%TO.N,+5V*%
X163610000Y-53105000D03*
%TO.P,U2,3,OUT*%
%TO.N,OUT*%
X161070000Y-53105000D03*
%TO.P,U2,2,TRIG*%
%TO.N,Net-(U2-TRIG)*%
X158530000Y-53105000D03*
D15*
%TO.P,U2,1,GND*%
%TO.N,GND*%
X155990000Y-53105000D03*
%TD*%
D14*
%TO.P,R2,2*%
%TO.N,+5V*%
X156000000Y-80400000D03*
%TO.P,R2,1*%
%TO.N,Net-(R2-Pad1)*%
X163620000Y-80400000D03*
%TD*%
D16*
%TO.P,J2,1,Pin_1*%
%TO.N,OUT*%
X162965000Y-87600000D03*
%TD*%
D11*
%TO.P,D10,2,A*%
%TO.N,Net-(D10-A)*%
X153000000Y-61200000D03*
D10*
%TO.P,D10,1,K*%
%TO.N,Net-(D1-K)*%
X150460000Y-61200000D03*
%TD*%
D17*
%TO.P,J1,2,Pin_2*%
%TO.N,GND*%
X159065000Y-87500000D03*
D16*
%TO.P,J1,1,Pin_1*%
%TO.N,+5V*%
X156525000Y-87500000D03*
%TD*%
D11*
%TO.P,D7,2,A*%
%TO.N,Net-(D7-A)*%
X166430000Y-87200000D03*
D10*
%TO.P,D7,1,K*%
%TO.N,Net-(D1-K)*%
X168970000Y-87200000D03*
%TD*%
D11*
%TO.P,D5,2,A*%
%TO.N,Net-(D5-A)*%
X153100000Y-36800000D03*
D10*
%TO.P,D5,1,K*%
%TO.N,Net-(D1-K)*%
X150560000Y-36800000D03*
%TD*%
D11*
%TO.P,D4,2,A*%
%TO.N,Net-(D4-A)*%
X166530000Y-49200000D03*
D10*
%TO.P,D4,1,K*%
%TO.N,Net-(D1-K)*%
X169070000Y-49200000D03*
%TD*%
D11*
%TO.P,D6,2,A*%
%TO.N,Net-(D6-A)*%
X153270000Y-86900000D03*
D10*
%TO.P,D6,1,K*%
%TO.N,Net-(D1-K)*%
X150730000Y-86900000D03*
%TD*%
D18*
%TO.P,RV1,3,3*%
%TO.N,Net-(U2-TRIG)*%
X162300000Y-37400000D03*
%TO.P,RV1,2,2*%
%TO.N,Net-(U2-DISCH)*%
X159760000Y-37400000D03*
D19*
%TO.P,RV1,1,1*%
%TO.N,Net-(R2-Pad1)*%
X157220000Y-37400000D03*
%TD*%
D11*
%TO.P,D8,2,A*%
%TO.N,Net-(D8-A)*%
X166430000Y-61200000D03*
D10*
%TO.P,D8,1,K*%
%TO.N,Net-(D1-K)*%
X168970000Y-61200000D03*
%TD*%
D11*
%TO.P,D2,2,A*%
%TO.N,Net-(D2-A)*%
X153200000Y-73400000D03*
D10*
%TO.P,D2,1,K*%
%TO.N,Net-(D1-K)*%
X150660000Y-73400000D03*
%TD*%
D11*
%TO.P,D1,2,A*%
%TO.N,Net-(D1-A)*%
X153070000Y-49600000D03*
D10*
%TO.P,D1,1,K*%
%TO.N,Net-(D1-K)*%
X150530000Y-49600000D03*
%TD*%
D14*
%TO.P,C1,2*%
%TO.N,Net-(U2-THRES)*%
X161100000Y-83800000D03*
%TO.P,C1,1*%
%TO.N,Net-(U2-TRIG)*%
X158600000Y-83800000D03*
%TD*%
D20*
%TO.P,C2,2*%
%TO.N,GND*%
X157100000Y-42400000D03*
%TO.P,C2,1*%
%TO.N,Net-(U2-CONT)*%
X162100000Y-42400000D03*
%TD*%
D11*
%TO.P,D9,2,A*%
%TO.N,Net-(D9-A)*%
X166330000Y-36900000D03*
D10*
%TO.P,D9,1,K*%
%TO.N,Net-(D1-K)*%
X168870000Y-36900000D03*
%TD*%
D14*
%TO.P,R1,2*%
%TO.N,GND*%
X156000000Y-77000000D03*
%TO.P,R1,1*%
%TO.N,Net-(D1-K)*%
X163620000Y-77000000D03*
%TD*%
D21*
%TO.N,Net-(D1-K)*%
X168970000Y-77000000D03*
X165600000Y-77000000D03*
%TO.N,Net-(U2-CONT)*%
X164200000Y-39200000D03*
X162100000Y-40300000D03*
%TD*%
D22*
%TO.N,GND*%
X156000000Y-73800000D02*
X155990000Y-73790000D01*
X156000000Y-77000000D02*
X156000000Y-73800000D01*
X154899000Y-88176000D02*
X154899000Y-78101000D01*
X155374000Y-88651000D02*
X154899000Y-88176000D01*
X154899000Y-78101000D02*
X156000000Y-77000000D01*
X157914000Y-88651000D02*
X155374000Y-88651000D01*
X159065000Y-87500000D02*
X157914000Y-88651000D01*
X159999000Y-86566000D02*
X159065000Y-87500000D01*
X159999000Y-67241000D02*
X159999000Y-86566000D01*
X163610000Y-63630000D02*
X159999000Y-67241000D01*
X162109000Y-62129000D02*
X163610000Y-63630000D01*
X162109000Y-60051000D02*
X162109000Y-62129000D01*
X163610000Y-58550000D02*
X162109000Y-60051000D01*
X165111000Y-57049000D02*
X163610000Y-58550000D01*
X165111000Y-53048950D02*
X165111000Y-57049000D01*
X159969000Y-47906950D02*
X165111000Y-53048950D01*
X159969000Y-45269000D02*
X159969000Y-47906950D01*
X157100000Y-42400000D02*
X159969000Y-45269000D01*
X154889000Y-44611000D02*
X157100000Y-42400000D01*
X154889000Y-52004000D02*
X154889000Y-44611000D01*
X155990000Y-53105000D02*
X154889000Y-52004000D01*
%TO.N,+5V*%
X163610000Y-53105000D02*
X155990000Y-45485000D01*
X163610000Y-56010000D02*
X163610000Y-53105000D01*
X157491000Y-62129000D02*
X163610000Y-56010000D01*
X157491000Y-78909000D02*
X157491000Y-62129000D01*
X156000000Y-80400000D02*
X157491000Y-78909000D01*
X156525000Y-80925000D02*
X156000000Y-80400000D01*
X156525000Y-87500000D02*
X156525000Y-80925000D01*
%TO.N,Net-(D1-K)*%
X165600000Y-77000000D02*
X168970000Y-77000000D01*
%TO.N,Net-(U2-CONT)*%
X163200000Y-39200000D02*
X164200000Y-39200000D01*
X162100000Y-40300000D02*
X163200000Y-39200000D01*
%TD*%
%TA.AperFunction,NonConductor*%
G36*
X170643039Y-34119685D02*
G01*
X170688794Y-34172489D01*
X170700000Y-34224000D01*
X170700000Y-48137726D01*
X170680315Y-48204765D01*
X170627511Y-48250520D01*
X170558353Y-48260464D01*
X170494797Y-48231439D01*
X170459818Y-48181059D01*
X170413797Y-48057671D01*
X170413793Y-48057664D01*
X170327547Y-47942455D01*
X170327544Y-47942452D01*
X170212335Y-47856206D01*
X170212328Y-47856202D01*
X170077482Y-47805908D01*
X170077483Y-47805908D01*
X170017883Y-47799501D01*
X170017881Y-47799500D01*
X170017873Y-47799500D01*
X170017864Y-47799500D01*
X168122129Y-47799500D01*
X168122123Y-47799501D01*
X168062516Y-47805908D01*
X167927671Y-47856202D01*
X167927664Y-47856206D01*
X167812455Y-47942452D01*
X167812452Y-47942455D01*
X167726206Y-48057664D01*
X167726203Y-48057669D01*
X167696398Y-48137581D01*
X167654526Y-48193514D01*
X167589062Y-48217931D01*
X167520789Y-48203079D01*
X167492535Y-48181928D01*
X167442363Y-48131756D01*
X167442358Y-48131752D01*
X167264025Y-48002187D01*
X167264024Y-48002186D01*
X167264022Y-48002185D01*
X167146791Y-47942452D01*
X167067606Y-47902104D01*
X167067603Y-47902103D01*
X166857952Y-47833985D01*
X166749086Y-47816742D01*
X166640222Y-47799500D01*
X166419778Y-47799500D01*
X166362222Y-47808616D01*
X166202047Y-47833985D01*
X165992396Y-47902103D01*
X165992393Y-47902104D01*
X165795974Y-48002187D01*
X165617641Y-48131752D01*
X165617636Y-48131756D01*
X165461756Y-48287636D01*
X165461752Y-48287641D01*
X165332187Y-48465974D01*
X165232104Y-48662393D01*
X165232103Y-48662396D01*
X165163985Y-48872047D01*
X165129500Y-49089778D01*
X165129500Y-49310221D01*
X165163985Y-49527952D01*
X165232103Y-49737603D01*
X165232104Y-49737606D01*
X165332187Y-49934025D01*
X165461752Y-50112358D01*
X165461756Y-50112363D01*
X165617636Y-50268243D01*
X165617641Y-50268247D01*
X165708174Y-50334022D01*
X165795978Y-50397815D01*
X165924375Y-50463237D01*
X165992393Y-50497895D01*
X165992396Y-50497896D01*
X166097221Y-50531955D01*
X166202049Y-50566015D01*
X166419778Y-50600500D01*
X166419779Y-50600500D01*
X166640221Y-50600500D01*
X166640222Y-50600500D01*
X166857951Y-50566015D01*
X167067606Y-50497895D01*
X167264022Y-50397815D01*
X167442365Y-50268242D01*
X167492536Y-50218070D01*
X167553857Y-50184586D01*
X167623548Y-50189570D01*
X167679482Y-50231441D01*
X167696398Y-50262419D01*
X167726202Y-50342328D01*
X167726206Y-50342335D01*
X167812452Y-50457544D01*
X167812455Y-50457547D01*
X167927664Y-50543793D01*
X167927671Y-50543797D01*
X168062517Y-50594091D01*
X168062516Y-50594091D01*
X168069444Y-50594835D01*
X168122127Y-50600500D01*
X170017872Y-50600499D01*
X170077483Y-50594091D01*
X170212331Y-50543796D01*
X170327546Y-50457546D01*
X170413796Y-50342331D01*
X170459818Y-50218940D01*
X170501689Y-50163006D01*
X170567153Y-50138589D01*
X170635426Y-50153440D01*
X170684832Y-50202845D01*
X170700000Y-50262273D01*
X170700000Y-89448638D01*
X170680315Y-89515677D01*
X170663681Y-89536319D01*
X170336319Y-89863681D01*
X170274996Y-89897166D01*
X170248638Y-89900000D01*
X148924000Y-89900000D01*
X148856961Y-89880315D01*
X148811206Y-89827511D01*
X148800000Y-89776000D01*
X148800000Y-60252135D01*
X149059500Y-60252135D01*
X149059500Y-62147870D01*
X149059501Y-62147876D01*
X149065908Y-62207483D01*
X149116202Y-62342328D01*
X149116206Y-62342335D01*
X149202452Y-62457544D01*
X149202455Y-62457547D01*
X149317664Y-62543793D01*
X149317671Y-62543797D01*
X149452517Y-62594091D01*
X149452516Y-62594091D01*
X149459444Y-62594835D01*
X149512127Y-62600500D01*
X151407872Y-62600499D01*
X151467483Y-62594091D01*
X151602331Y-62543796D01*
X151717546Y-62457546D01*
X151803796Y-62342331D01*
X151831429Y-62268243D01*
X151833601Y-62262420D01*
X151875471Y-62206486D01*
X151940936Y-62182068D01*
X152009209Y-62196919D01*
X152037464Y-62218071D01*
X152087636Y-62268243D01*
X152087641Y-62268247D01*
X152213930Y-62360000D01*
X152265978Y-62397815D01*
X152394375Y-62463237D01*
X152462393Y-62497895D01*
X152462396Y-62497896D01*
X152567221Y-62531955D01*
X152672049Y-62566015D01*
X152889778Y-62600500D01*
X152889779Y-62600500D01*
X153110221Y-62600500D01*
X153110222Y-62600500D01*
X153327951Y-62566015D01*
X153537606Y-62497895D01*
X153734022Y-62397815D01*
X153912365Y-62268242D01*
X154068242Y-62112365D01*
X154197815Y-61934022D01*
X154269970Y-61792410D01*
X154317944Y-61741616D01*
X154385765Y-61724821D01*
X154451900Y-61747358D01*
X154480772Y-61775822D01*
X154598028Y-61937212D01*
X154598032Y-61937217D01*
X154742786Y-62081971D01*
X154884026Y-62184586D01*
X154908390Y-62202287D01*
X154999840Y-62248883D01*
X155001080Y-62249515D01*
X155051876Y-62297490D01*
X155068671Y-62365311D01*
X155046134Y-62431446D01*
X155001080Y-62470485D01*
X154908386Y-62517715D01*
X154742786Y-62638028D01*
X154598028Y-62782786D01*
X154477715Y-62948386D01*
X154384781Y-63130776D01*
X154321522Y-63325465D01*
X154289500Y-63527648D01*
X154289500Y-63732351D01*
X154321522Y-63934534D01*
X154384781Y-64129223D01*
X154448691Y-64254653D01*
X154465537Y-64287714D01*
X154477715Y-64311613D01*
X154598028Y-64477213D01*
X154742786Y-64621971D01*
X154897749Y-64734556D01*
X154908390Y-64742287D01*
X154999840Y-64788883D01*
X155001080Y-64789515D01*
X155051876Y-64837490D01*
X155068671Y-64905311D01*
X155046134Y-64971446D01*
X155001080Y-65010485D01*
X154908386Y-65057715D01*
X154742786Y-65178028D01*
X154598028Y-65322786D01*
X154477715Y-65488386D01*
X154384781Y-65670776D01*
X154321522Y-65865465D01*
X154289500Y-66067648D01*
X154289500Y-66272351D01*
X154321522Y-66474534D01*
X154384781Y-66669223D01*
X154477715Y-66851613D01*
X154598028Y-67017213D01*
X154742786Y-67161971D01*
X154897749Y-67274556D01*
X154908390Y-67282287D01*
X154982518Y-67320057D01*
X155001080Y-67329515D01*
X155051876Y-67377490D01*
X155068671Y-67445311D01*
X155046134Y-67511446D01*
X155001080Y-67550485D01*
X154908386Y-67597715D01*
X154742786Y-67718028D01*
X154598028Y-67862786D01*
X154477715Y-68028386D01*
X154384781Y-68210776D01*
X154321522Y-68405465D01*
X154289500Y-68607648D01*
X154289500Y-68812351D01*
X154321522Y-69014534D01*
X154384781Y-69209223D01*
X154477715Y-69391613D01*
X154598028Y-69557213D01*
X154742786Y-69701971D01*
X154897749Y-69814556D01*
X154908390Y-69822287D01*
X154999840Y-69868883D01*
X155001080Y-69869515D01*
X155051876Y-69917490D01*
X155068671Y-69985311D01*
X155046134Y-70051446D01*
X155001080Y-70090485D01*
X154908386Y-70137715D01*
X154742786Y-70258028D01*
X154598028Y-70402786D01*
X154477715Y-70568386D01*
X154384781Y-70750776D01*
X154321522Y-70945465D01*
X154289500Y-71147648D01*
X154289500Y-71352351D01*
X154321522Y-71554534D01*
X154384781Y-71749223D01*
X154477715Y-71931613D01*
X154598028Y-72097213D01*
X154742786Y-72241971D01*
X154866367Y-72331756D01*
X154908390Y-72362287D01*
X154967720Y-72392517D01*
X155001080Y-72409515D01*
X155051876Y-72457490D01*
X155068671Y-72525311D01*
X155046134Y-72591446D01*
X155001080Y-72630485D01*
X154908386Y-72677715D01*
X154742788Y-72798027D01*
X154679512Y-72861303D01*
X154618188Y-72894787D01*
X154548497Y-72889802D01*
X154492563Y-72847931D01*
X154481346Y-72829916D01*
X154397815Y-72665978D01*
X154337173Y-72582511D01*
X154268247Y-72487641D01*
X154268243Y-72487636D01*
X154112363Y-72331756D01*
X154112358Y-72331752D01*
X153934025Y-72202187D01*
X153934024Y-72202186D01*
X153934022Y-72202185D01*
X153843784Y-72156206D01*
X153737606Y-72102104D01*
X153737603Y-72102103D01*
X153527952Y-72033985D01*
X153419086Y-72016742D01*
X153310222Y-71999500D01*
X153089778Y-71999500D01*
X153017201Y-72010995D01*
X152872047Y-72033985D01*
X152662396Y-72102103D01*
X152662393Y-72102104D01*
X152465974Y-72202187D01*
X152287641Y-72331752D01*
X152287636Y-72331756D01*
X152237463Y-72381929D01*
X152176140Y-72415413D01*
X152106448Y-72410428D01*
X152050515Y-72368557D01*
X152033601Y-72337580D01*
X152003797Y-72257671D01*
X152003793Y-72257664D01*
X151917547Y-72142455D01*
X151917544Y-72142452D01*
X151802335Y-72056206D01*
X151802328Y-72056202D01*
X151667482Y-72005908D01*
X151667483Y-72005908D01*
X151607883Y-71999501D01*
X151607881Y-71999500D01*
X151607873Y-71999500D01*
X151607864Y-71999500D01*
X149712129Y-71999500D01*
X149712123Y-71999501D01*
X149652516Y-72005908D01*
X149517671Y-72056202D01*
X149517664Y-72056206D01*
X149402455Y-72142452D01*
X149402452Y-72142455D01*
X149316206Y-72257664D01*
X149316202Y-72257671D01*
X149265908Y-72392517D01*
X149259501Y-72452116D01*
X149259500Y-72452135D01*
X149259500Y-74347870D01*
X149259501Y-74347876D01*
X149265908Y-74407483D01*
X149316202Y-74542328D01*
X149316206Y-74542335D01*
X149402452Y-74657544D01*
X149402455Y-74657547D01*
X149517664Y-74743793D01*
X149517671Y-74743797D01*
X149652517Y-74794091D01*
X149652516Y-74794091D01*
X149659444Y-74794835D01*
X149712127Y-74800500D01*
X151607872Y-74800499D01*
X151667483Y-74794091D01*
X151802331Y-74743796D01*
X151917546Y-74657546D01*
X152003796Y-74542331D01*
X152012844Y-74518072D01*
X152033601Y-74462420D01*
X152075471Y-74406486D01*
X152140936Y-74382068D01*
X152209209Y-74396919D01*
X152237464Y-74418071D01*
X152287636Y-74468243D01*
X152287641Y-74468247D01*
X152374621Y-74531441D01*
X152465978Y-74597815D01*
X152594375Y-74663237D01*
X152662393Y-74697895D01*
X152662396Y-74697896D01*
X152767221Y-74731955D01*
X152872049Y-74766015D01*
X153089778Y-74800500D01*
X153089779Y-74800500D01*
X153310221Y-74800500D01*
X153310222Y-74800500D01*
X153527951Y-74766015D01*
X153737606Y-74697895D01*
X153934022Y-74597815D01*
X154107725Y-74471613D01*
X154112357Y-74468248D01*
X154112357Y-74468247D01*
X154112365Y-74468242D01*
X154232576Y-74348030D01*
X154293895Y-74314548D01*
X154363587Y-74319532D01*
X154419521Y-74361403D01*
X154430739Y-74379419D01*
X154444531Y-74406486D01*
X154475999Y-74468247D01*
X154477715Y-74471613D01*
X154598028Y-74637213D01*
X154742786Y-74781971D01*
X154858464Y-74866014D01*
X154908390Y-74902287D01*
X155024607Y-74961503D01*
X155090776Y-74995218D01*
X155090778Y-74995218D01*
X155090781Y-74995220D01*
X155203241Y-75031760D01*
X155285459Y-75058475D01*
X155285460Y-75058475D01*
X155285466Y-75058477D01*
X155294893Y-75059970D01*
X155358026Y-75089893D01*
X155394962Y-75149202D01*
X155399500Y-75182443D01*
X155399500Y-75770397D01*
X155379815Y-75837436D01*
X155331800Y-75880879D01*
X155318389Y-75887712D01*
X155152786Y-76008028D01*
X155008028Y-76152786D01*
X154887715Y-76318386D01*
X154794781Y-76500776D01*
X154731522Y-76695465D01*
X154699500Y-76897648D01*
X154699500Y-77102351D01*
X154731522Y-77304534D01*
X154736173Y-77318848D01*
X154736606Y-77334059D01*
X154741924Y-77348315D01*
X154737582Y-77368271D01*
X154738165Y-77388690D01*
X154730076Y-77402775D01*
X154727072Y-77416588D01*
X154705921Y-77444842D01*
X154530286Y-77620478D01*
X154418481Y-77732282D01*
X154418477Y-77732287D01*
X154396858Y-77769735D01*
X154396857Y-77769737D01*
X154339423Y-77869215D01*
X154298499Y-78021943D01*
X154298499Y-78021945D01*
X154298499Y-78190046D01*
X154298500Y-78190059D01*
X154298500Y-85672771D01*
X154278815Y-85739810D01*
X154226011Y-85785565D01*
X154156853Y-85795509D01*
X154101615Y-85773089D01*
X154004025Y-85702187D01*
X154004024Y-85702186D01*
X154004022Y-85702185D01*
X153886791Y-85642452D01*
X153807606Y-85602104D01*
X153807603Y-85602103D01*
X153597952Y-85533985D01*
X153489086Y-85516742D01*
X153380222Y-85499500D01*
X153159778Y-85499500D01*
X153087201Y-85510995D01*
X152942047Y-85533985D01*
X152732396Y-85602103D01*
X152732393Y-85602104D01*
X152535974Y-85702187D01*
X152357641Y-85831752D01*
X152357636Y-85831756D01*
X152307463Y-85881929D01*
X152246140Y-85915413D01*
X152176448Y-85910428D01*
X152120515Y-85868557D01*
X152103601Y-85837580D01*
X152073797Y-85757671D01*
X152073793Y-85757664D01*
X151987547Y-85642455D01*
X151987544Y-85642452D01*
X151872335Y-85556206D01*
X151872328Y-85556202D01*
X151737482Y-85505908D01*
X151737483Y-85505908D01*
X151677883Y-85499501D01*
X151677881Y-85499500D01*
X151677873Y-85499500D01*
X151677864Y-85499500D01*
X149782129Y-85499500D01*
X149782123Y-85499501D01*
X149722516Y-85505908D01*
X149587671Y-85556202D01*
X149587664Y-85556206D01*
X149472455Y-85642452D01*
X149472452Y-85642455D01*
X149386206Y-85757664D01*
X149386202Y-85757671D01*
X149335908Y-85892517D01*
X149329501Y-85952116D01*
X149329500Y-85952135D01*
X149329500Y-87847870D01*
X149329501Y-87847876D01*
X149335908Y-87907483D01*
X149386202Y-88042328D01*
X149386206Y-88042335D01*
X149472452Y-88157544D01*
X149472455Y-88157547D01*
X149587664Y-88243793D01*
X149587671Y-88243797D01*
X149722517Y-88294091D01*
X149722516Y-88294091D01*
X149729444Y-88294835D01*
X149782127Y-88300500D01*
X151677872Y-88300499D01*
X151737483Y-88294091D01*
X151872331Y-88243796D01*
X151987546Y-88157546D01*
X152073796Y-88042331D01*
X152082402Y-88019257D01*
X152103601Y-87962420D01*
X152145471Y-87906486D01*
X152210936Y-87882068D01*
X152279209Y-87896919D01*
X152307464Y-87918071D01*
X152357636Y-87968243D01*
X152357641Y-87968247D01*
X152513192Y-88081260D01*
X152535978Y-88097815D01*
X152664375Y-88163237D01*
X152732393Y-88197895D01*
X152732396Y-88197896D01*
X152762940Y-88207820D01*
X152942049Y-88266015D01*
X153159778Y-88300500D01*
X153159779Y-88300500D01*
X153380221Y-88300500D01*
X153380222Y-88300500D01*
X153597951Y-88266015D01*
X153807606Y-88197895D01*
X154004022Y-88097815D01*
X154101614Y-88026911D01*
X154167420Y-88003431D01*
X154235474Y-88019257D01*
X154284169Y-88069362D01*
X154298499Y-88127229D01*
X154298499Y-88255054D01*
X154298498Y-88255054D01*
X154302033Y-88268247D01*
X154339423Y-88407785D01*
X154339424Y-88407787D01*
X154339423Y-88407787D01*
X154346023Y-88419217D01*
X154346024Y-88419218D01*
X154418477Y-88544712D01*
X154418481Y-88544717D01*
X154537349Y-88663585D01*
X154537355Y-88663590D01*
X154889139Y-89015374D01*
X154889149Y-89015385D01*
X154893479Y-89019715D01*
X154893480Y-89019716D01*
X155005284Y-89131520D01*
X155005286Y-89131521D01*
X155005290Y-89131524D01*
X155142209Y-89210573D01*
X155142216Y-89210577D01*
X155254019Y-89240534D01*
X155294942Y-89251500D01*
X155294943Y-89251500D01*
X157827331Y-89251500D01*
X157827347Y-89251501D01*
X157834943Y-89251501D01*
X157993054Y-89251501D01*
X157993057Y-89251501D01*
X158145785Y-89210577D01*
X158195904Y-89181639D01*
X158282716Y-89131520D01*
X158394520Y-89019716D01*
X158394520Y-89019714D01*
X158404728Y-89009507D01*
X158404730Y-89009504D01*
X158580478Y-88833755D01*
X158641799Y-88800272D01*
X158706473Y-88803506D01*
X158748757Y-88817246D01*
X158958713Y-88850500D01*
X158958714Y-88850500D01*
X159171286Y-88850500D01*
X159171287Y-88850500D01*
X159381243Y-88817246D01*
X159583412Y-88751557D01*
X159772816Y-88655051D01*
X159847901Y-88600499D01*
X159944786Y-88530109D01*
X159944788Y-88530106D01*
X159944792Y-88530104D01*
X160095104Y-88379792D01*
X160095106Y-88379788D01*
X160095109Y-88379786D01*
X160220048Y-88207820D01*
X160220047Y-88207820D01*
X160220051Y-88207816D01*
X160316557Y-88018412D01*
X160382246Y-87816243D01*
X160415500Y-87606287D01*
X160415500Y-87393713D01*
X160382246Y-87183757D01*
X160376842Y-87167127D01*
X160368508Y-87141475D01*
X160366513Y-87071634D01*
X160398755Y-87015480D01*
X160479520Y-86934716D01*
X160558577Y-86797784D01*
X160584206Y-86702135D01*
X161614500Y-86702135D01*
X161614500Y-88497870D01*
X161614501Y-88497876D01*
X161620908Y-88557483D01*
X161671202Y-88692328D01*
X161671206Y-88692335D01*
X161757452Y-88807544D01*
X161757455Y-88807547D01*
X161872664Y-88893793D01*
X161872671Y-88893797D01*
X162007517Y-88944091D01*
X162007516Y-88944091D01*
X162014444Y-88944835D01*
X162067127Y-88950500D01*
X163862872Y-88950499D01*
X163922483Y-88944091D01*
X164057331Y-88893796D01*
X164172546Y-88807546D01*
X164258796Y-88692331D01*
X164309091Y-88557483D01*
X164315500Y-88497873D01*
X164315499Y-87089778D01*
X165029500Y-87089778D01*
X165029500Y-87310221D01*
X165063985Y-87527952D01*
X165132103Y-87737603D01*
X165132104Y-87737606D01*
X165170197Y-87812365D01*
X165224057Y-87918071D01*
X165232187Y-87934025D01*
X165361752Y-88112358D01*
X165361756Y-88112363D01*
X165517636Y-88268243D01*
X165517641Y-88268247D01*
X165619606Y-88342328D01*
X165695978Y-88397815D01*
X165824375Y-88463237D01*
X165892393Y-88497895D01*
X165892396Y-88497896D01*
X165991525Y-88530104D01*
X166102049Y-88566015D01*
X166319778Y-88600500D01*
X166319779Y-88600500D01*
X166540221Y-88600500D01*
X166540222Y-88600500D01*
X166757951Y-88566015D01*
X166967606Y-88497895D01*
X167164022Y-88397815D01*
X167342365Y-88268242D01*
X167392536Y-88218070D01*
X167453857Y-88184586D01*
X167523548Y-88189570D01*
X167579482Y-88231441D01*
X167596398Y-88262419D01*
X167626202Y-88342328D01*
X167626206Y-88342335D01*
X167712452Y-88457544D01*
X167712455Y-88457547D01*
X167827664Y-88543793D01*
X167827671Y-88543797D01*
X167962517Y-88594091D01*
X167962516Y-88594091D01*
X167969444Y-88594835D01*
X168022127Y-88600500D01*
X169917872Y-88600499D01*
X169977483Y-88594091D01*
X170112331Y-88543796D01*
X170227546Y-88457546D01*
X170313796Y-88342331D01*
X170364091Y-88207483D01*
X170370500Y-88147873D01*
X170370499Y-86252128D01*
X170364091Y-86192517D01*
X170360449Y-86182753D01*
X170313797Y-86057671D01*
X170313793Y-86057664D01*
X170227547Y-85942455D01*
X170227544Y-85942452D01*
X170112335Y-85856206D01*
X170112328Y-85856202D01*
X169977482Y-85805908D01*
X169977483Y-85805908D01*
X169917883Y-85799501D01*
X169917881Y-85799500D01*
X169917873Y-85799500D01*
X169917864Y-85799500D01*
X168022129Y-85799500D01*
X168022123Y-85799501D01*
X167962516Y-85805908D01*
X167827671Y-85856202D01*
X167827664Y-85856206D01*
X167712455Y-85942452D01*
X167712452Y-85942455D01*
X167626206Y-86057664D01*
X167626203Y-86057669D01*
X167596398Y-86137581D01*
X167554526Y-86193514D01*
X167489062Y-86217931D01*
X167420789Y-86203079D01*
X167392535Y-86181928D01*
X167342363Y-86131756D01*
X167342358Y-86131752D01*
X167164025Y-86002187D01*
X167164024Y-86002186D01*
X167164022Y-86002185D01*
X167101096Y-85970122D01*
X166967606Y-85902104D01*
X166967603Y-85902103D01*
X166757952Y-85833985D01*
X166649086Y-85816742D01*
X166540222Y-85799500D01*
X166319778Y-85799500D01*
X166247201Y-85810995D01*
X166102047Y-85833985D01*
X165892396Y-85902103D01*
X165892393Y-85902104D01*
X165695974Y-86002187D01*
X165517641Y-86131752D01*
X165517636Y-86131756D01*
X165361756Y-86287636D01*
X165361752Y-86287641D01*
X165232187Y-86465974D01*
X165132104Y-86662393D01*
X165132103Y-86662396D01*
X165063985Y-86872047D01*
X165029500Y-87089778D01*
X164315499Y-87089778D01*
X164315499Y-86702128D01*
X164309091Y-86642517D01*
X164300770Y-86620208D01*
X164258797Y-86507671D01*
X164258793Y-86507664D01*
X164172547Y-86392455D01*
X164172544Y-86392452D01*
X164057335Y-86306206D01*
X164057328Y-86306202D01*
X163922482Y-86255908D01*
X163922483Y-86255908D01*
X163862883Y-86249501D01*
X163862881Y-86249500D01*
X163862873Y-86249500D01*
X163862864Y-86249500D01*
X162067129Y-86249500D01*
X162067123Y-86249501D01*
X162007516Y-86255908D01*
X161872671Y-86306202D01*
X161872664Y-86306206D01*
X161757455Y-86392452D01*
X161757452Y-86392455D01*
X161671206Y-86507664D01*
X161671202Y-86507671D01*
X161620908Y-86642517D01*
X161614501Y-86702116D01*
X161614501Y-86702123D01*
X161614500Y-86702135D01*
X160584206Y-86702135D01*
X160599500Y-86645057D01*
X160599500Y-85175475D01*
X160619185Y-85108436D01*
X160671989Y-85062681D01*
X160741147Y-85052737D01*
X160761820Y-85057545D01*
X160795458Y-85068475D01*
X160795461Y-85068475D01*
X160795466Y-85068477D01*
X160997648Y-85100500D01*
X160997649Y-85100500D01*
X161202351Y-85100500D01*
X161202352Y-85100500D01*
X161404534Y-85068477D01*
X161599219Y-85005220D01*
X161781610Y-84912287D01*
X161898500Y-84827362D01*
X161947213Y-84791971D01*
X161947215Y-84791968D01*
X161947219Y-84791966D01*
X162091966Y-84647219D01*
X162091968Y-84647215D01*
X162091971Y-84647213D01*
X162144732Y-84574590D01*
X162212287Y-84481610D01*
X162305220Y-84299219D01*
X162368477Y-84104534D01*
X162400500Y-83902352D01*
X162400500Y-83697648D01*
X162368477Y-83495466D01*
X162305220Y-83300781D01*
X162305218Y-83300778D01*
X162305218Y-83300776D01*
X162271503Y-83234607D01*
X162212287Y-83118390D01*
X162204556Y-83107749D01*
X162091971Y-82952786D01*
X161947213Y-82808028D01*
X161781613Y-82687715D01*
X161781612Y-82687714D01*
X161781610Y-82687713D01*
X161718204Y-82655406D01*
X161599223Y-82594781D01*
X161404534Y-82531522D01*
X161229995Y-82503878D01*
X161202352Y-82499500D01*
X160997648Y-82499500D01*
X160941652Y-82508369D01*
X160795464Y-82531523D01*
X160795457Y-82531524D01*
X160761817Y-82542455D01*
X160691976Y-82544450D01*
X160632144Y-82508369D01*
X160601316Y-82445668D01*
X160599500Y-82424524D01*
X160599500Y-80297648D01*
X162319500Y-80297648D01*
X162319500Y-80502351D01*
X162351522Y-80704534D01*
X162414781Y-80899223D01*
X162507715Y-81081613D01*
X162628028Y-81247213D01*
X162772786Y-81391971D01*
X162927749Y-81504556D01*
X162938390Y-81512287D01*
X163054607Y-81571503D01*
X163120776Y-81605218D01*
X163120778Y-81605218D01*
X163120781Y-81605220D01*
X163225137Y-81639127D01*
X163315465Y-81668477D01*
X163416557Y-81684488D01*
X163517648Y-81700500D01*
X163517649Y-81700500D01*
X163722351Y-81700500D01*
X163722352Y-81700500D01*
X163924534Y-81668477D01*
X164119219Y-81605220D01*
X164301610Y-81512287D01*
X164394590Y-81444732D01*
X164467213Y-81391971D01*
X164467215Y-81391968D01*
X164467219Y-81391966D01*
X164611966Y-81247219D01*
X164611968Y-81247215D01*
X164611971Y-81247213D01*
X164664732Y-81174590D01*
X164732287Y-81081610D01*
X164825220Y-80899219D01*
X164888477Y-80704534D01*
X164920500Y-80502352D01*
X164920500Y-80297648D01*
X164888477Y-80095466D01*
X164825220Y-79900781D01*
X164825218Y-79900778D01*
X164825218Y-79900776D01*
X164791503Y-79834607D01*
X164732287Y-79718390D01*
X164724556Y-79707749D01*
X164611971Y-79552786D01*
X164467213Y-79408028D01*
X164301613Y-79287715D01*
X164301612Y-79287714D01*
X164301610Y-79287713D01*
X164244653Y-79258691D01*
X164119223Y-79194781D01*
X163924534Y-79131522D01*
X163749995Y-79103878D01*
X163722352Y-79099500D01*
X163517648Y-79099500D01*
X163493329Y-79103351D01*
X163315465Y-79131522D01*
X163120776Y-79194781D01*
X162938386Y-79287715D01*
X162772786Y-79408028D01*
X162628028Y-79552786D01*
X162507715Y-79718386D01*
X162414781Y-79900776D01*
X162351522Y-80095465D01*
X162319500Y-80297648D01*
X160599500Y-80297648D01*
X160599500Y-76897648D01*
X162319500Y-76897648D01*
X162319500Y-77102351D01*
X162351522Y-77304534D01*
X162414781Y-77499223D01*
X162507715Y-77681613D01*
X162628028Y-77847213D01*
X162772786Y-77991971D01*
X162894067Y-78080085D01*
X162938390Y-78112287D01*
X163054607Y-78171503D01*
X163120776Y-78205218D01*
X163120778Y-78205218D01*
X163120781Y-78205220D01*
X163225137Y-78239127D01*
X163315465Y-78268477D01*
X163416557Y-78284488D01*
X163517648Y-78300500D01*
X163517649Y-78300500D01*
X163722351Y-78300500D01*
X163722352Y-78300500D01*
X163924534Y-78268477D01*
X164119219Y-78205220D01*
X164301610Y-78112287D01*
X164425959Y-78021943D01*
X164467213Y-77991971D01*
X164467215Y-77991968D01*
X164467219Y-77991966D01*
X164611966Y-77847219D01*
X164611968Y-77847215D01*
X164611971Y-77847213D01*
X164732286Y-77681611D01*
X164762769Y-77621786D01*
X164795641Y-77557270D01*
X164843614Y-77506475D01*
X164911435Y-77489680D01*
X164977570Y-77512217D01*
X164993806Y-77525885D01*
X165089707Y-77621786D01*
X165089711Y-77621789D01*
X165220814Y-77709390D01*
X165220827Y-77709397D01*
X165366498Y-77769735D01*
X165366503Y-77769737D01*
X165521153Y-77800499D01*
X165521156Y-77800500D01*
X165521158Y-77800500D01*
X165678844Y-77800500D01*
X165678845Y-77800499D01*
X165833497Y-77769737D01*
X165979179Y-77709394D01*
X166020761Y-77681610D01*
X166110875Y-77621398D01*
X166177553Y-77600520D01*
X166179766Y-77600500D01*
X168390234Y-77600500D01*
X168457273Y-77620185D01*
X168459125Y-77621398D01*
X168590814Y-77709390D01*
X168590827Y-77709397D01*
X168736498Y-77769735D01*
X168736503Y-77769737D01*
X168891153Y-77800499D01*
X168891156Y-77800500D01*
X168891158Y-77800500D01*
X169048844Y-77800500D01*
X169048845Y-77800499D01*
X169203497Y-77769737D01*
X169349179Y-77709394D01*
X169480289Y-77621789D01*
X169591789Y-77510289D01*
X169679394Y-77379179D01*
X169739737Y-77233497D01*
X169770500Y-77078842D01*
X169770500Y-76921158D01*
X169770500Y-76921155D01*
X169770499Y-76921153D01*
X169739737Y-76766503D01*
X169710313Y-76695466D01*
X169679397Y-76620827D01*
X169679390Y-76620814D01*
X169591789Y-76489711D01*
X169591786Y-76489707D01*
X169480292Y-76378213D01*
X169480288Y-76378210D01*
X169349185Y-76290609D01*
X169349172Y-76290602D01*
X169203501Y-76230264D01*
X169203489Y-76230261D01*
X169048845Y-76199500D01*
X169048842Y-76199500D01*
X168891158Y-76199500D01*
X168891155Y-76199500D01*
X168736510Y-76230261D01*
X168736498Y-76230264D01*
X168590827Y-76290602D01*
X168590814Y-76290609D01*
X168459125Y-76378602D01*
X168392447Y-76399480D01*
X168390234Y-76399500D01*
X166179766Y-76399500D01*
X166112727Y-76379815D01*
X166110875Y-76378602D01*
X165979185Y-76290609D01*
X165979172Y-76290602D01*
X165833501Y-76230264D01*
X165833489Y-76230261D01*
X165678845Y-76199500D01*
X165678842Y-76199500D01*
X165521158Y-76199500D01*
X165521155Y-76199500D01*
X165366510Y-76230261D01*
X165366498Y-76230264D01*
X165220827Y-76290602D01*
X165220814Y-76290609D01*
X165089711Y-76378210D01*
X164993806Y-76474115D01*
X164932482Y-76507599D01*
X164862791Y-76502615D01*
X164806858Y-76460743D01*
X164795640Y-76442728D01*
X164773614Y-76399500D01*
X164732287Y-76318390D01*
X164732285Y-76318387D01*
X164732284Y-76318385D01*
X164611971Y-76152786D01*
X164467213Y-76008028D01*
X164301613Y-75887715D01*
X164301612Y-75887714D01*
X164301610Y-75887713D01*
X164234848Y-75853696D01*
X164119223Y-75794781D01*
X163924534Y-75731522D01*
X163749995Y-75703878D01*
X163722352Y-75699500D01*
X163517648Y-75699500D01*
X163493329Y-75703351D01*
X163315465Y-75731522D01*
X163120776Y-75794781D01*
X162938386Y-75887715D01*
X162772786Y-76008028D01*
X162628028Y-76152786D01*
X162507715Y-76318386D01*
X162414781Y-76500776D01*
X162351522Y-76695465D01*
X162319500Y-76897648D01*
X160599500Y-76897648D01*
X160599500Y-67541097D01*
X160619185Y-67474058D01*
X160635819Y-67453416D01*
X161130141Y-66959094D01*
X161724755Y-66364479D01*
X161786076Y-66330996D01*
X161855768Y-66335980D01*
X161911701Y-66377852D01*
X161934907Y-66432764D01*
X161941522Y-66474534D01*
X162004781Y-66669223D01*
X162097715Y-66851613D01*
X162218028Y-67017213D01*
X162362786Y-67161971D01*
X162517749Y-67274556D01*
X162528390Y-67282287D01*
X162602518Y-67320057D01*
X162621080Y-67329515D01*
X162671876Y-67377490D01*
X162688671Y-67445311D01*
X162666134Y-67511446D01*
X162621080Y-67550485D01*
X162528386Y-67597715D01*
X162362786Y-67718028D01*
X162218028Y-67862786D01*
X162097715Y-68028386D01*
X162004781Y-68210776D01*
X161941522Y-68405465D01*
X161909500Y-68607648D01*
X161909500Y-68812351D01*
X161941522Y-69014534D01*
X162004781Y-69209223D01*
X162097715Y-69391613D01*
X162218028Y-69557213D01*
X162362786Y-69701971D01*
X162517749Y-69814556D01*
X162528390Y-69822287D01*
X162619840Y-69868883D01*
X162621080Y-69869515D01*
X162671876Y-69917490D01*
X162688671Y-69985311D01*
X162666134Y-70051446D01*
X162621080Y-70090485D01*
X162528386Y-70137715D01*
X162362786Y-70258028D01*
X162218028Y-70402786D01*
X162097715Y-70568386D01*
X162004781Y-70750776D01*
X161941522Y-70945465D01*
X161909500Y-71147648D01*
X161909500Y-71352351D01*
X161941522Y-71554534D01*
X162004781Y-71749223D01*
X162097715Y-71931613D01*
X162218028Y-72097213D01*
X162362786Y-72241971D01*
X162486367Y-72331756D01*
X162528390Y-72362287D01*
X162587720Y-72392517D01*
X162621080Y-72409515D01*
X162671876Y-72457490D01*
X162688671Y-72525311D01*
X162666134Y-72591446D01*
X162621080Y-72630485D01*
X162528386Y-72677715D01*
X162362786Y-72798028D01*
X162218028Y-72942786D01*
X162097715Y-73108386D01*
X162004781Y-73290776D01*
X161941522Y-73485465D01*
X161909500Y-73687648D01*
X161909500Y-73892351D01*
X161941522Y-74094534D01*
X162004781Y-74289223D01*
X162064531Y-74406486D01*
X162095999Y-74468247D01*
X162097715Y-74471613D01*
X162218028Y-74637213D01*
X162362786Y-74781971D01*
X162478464Y-74866014D01*
X162528390Y-74902287D01*
X162644607Y-74961503D01*
X162710776Y-74995218D01*
X162710778Y-74995218D01*
X162710781Y-74995220D01*
X162815137Y-75029127D01*
X162905465Y-75058477D01*
X162953039Y-75066012D01*
X163107648Y-75090500D01*
X163107649Y-75090500D01*
X164112351Y-75090500D01*
X164112352Y-75090500D01*
X164314534Y-75058477D01*
X164509219Y-74995220D01*
X164691610Y-74902287D01*
X164784590Y-74834732D01*
X164857213Y-74781971D01*
X164857215Y-74781968D01*
X164857219Y-74781966D01*
X165001966Y-74637219D01*
X165001968Y-74637215D01*
X165001971Y-74637213D01*
X165122284Y-74471614D01*
X165122285Y-74471613D01*
X165122287Y-74471610D01*
X165159246Y-74399073D01*
X165207219Y-74348279D01*
X165275040Y-74331484D01*
X165341175Y-74354021D01*
X165370048Y-74382485D01*
X165391752Y-74412358D01*
X165391756Y-74412363D01*
X165547636Y-74568243D01*
X165547641Y-74568247D01*
X165703192Y-74681260D01*
X165725978Y-74697815D01*
X165854375Y-74763237D01*
X165922393Y-74797895D01*
X165922396Y-74797896D01*
X166027221Y-74831955D01*
X166132049Y-74866015D01*
X166349778Y-74900500D01*
X166349779Y-74900500D01*
X166570221Y-74900500D01*
X166570222Y-74900500D01*
X166787951Y-74866015D01*
X166997606Y-74797895D01*
X167194022Y-74697815D01*
X167372365Y-74568242D01*
X167422536Y-74518070D01*
X167483857Y-74484586D01*
X167553548Y-74489570D01*
X167609482Y-74531441D01*
X167626398Y-74562419D01*
X167656202Y-74642328D01*
X167656206Y-74642335D01*
X167742452Y-74757544D01*
X167742455Y-74757547D01*
X167857664Y-74843793D01*
X167857671Y-74843797D01*
X167992517Y-74894091D01*
X167992516Y-74894091D01*
X167999444Y-74894835D01*
X168052127Y-74900500D01*
X169947872Y-74900499D01*
X170007483Y-74894091D01*
X170142331Y-74843796D01*
X170257546Y-74757546D01*
X170343796Y-74642331D01*
X170394091Y-74507483D01*
X170400500Y-74447873D01*
X170400499Y-72552128D01*
X170394091Y-72492517D01*
X170392272Y-72487641D01*
X170343797Y-72357671D01*
X170343793Y-72357664D01*
X170257547Y-72242455D01*
X170257544Y-72242452D01*
X170142335Y-72156206D01*
X170142328Y-72156202D01*
X170007482Y-72105908D01*
X170007483Y-72105908D01*
X169947883Y-72099501D01*
X169947881Y-72099500D01*
X169947873Y-72099500D01*
X169947864Y-72099500D01*
X168052129Y-72099500D01*
X168052123Y-72099501D01*
X167992516Y-72105908D01*
X167857671Y-72156202D01*
X167857664Y-72156206D01*
X167742455Y-72242452D01*
X167742452Y-72242455D01*
X167656206Y-72357664D01*
X167656203Y-72357669D01*
X167626398Y-72437581D01*
X167584526Y-72493514D01*
X167519062Y-72517931D01*
X167450789Y-72503079D01*
X167422535Y-72481928D01*
X167372363Y-72431756D01*
X167372358Y-72431752D01*
X167194025Y-72302187D01*
X167194024Y-72302186D01*
X167194022Y-72302185D01*
X167131096Y-72270122D01*
X166997606Y-72202104D01*
X166997603Y-72202103D01*
X166787952Y-72133985D01*
X166679086Y-72116742D01*
X166570222Y-72099500D01*
X166349778Y-72099500D01*
X166277201Y-72110995D01*
X166132047Y-72133985D01*
X165922396Y-72202103D01*
X165922393Y-72202104D01*
X165725974Y-72302187D01*
X165547641Y-72431752D01*
X165547636Y-72431756D01*
X165391756Y-72587636D01*
X165391752Y-72587641D01*
X165262187Y-72765974D01*
X165192155Y-72903418D01*
X165144180Y-72954214D01*
X165076359Y-72971009D01*
X165010224Y-72948471D01*
X164993989Y-72934804D01*
X164857213Y-72798028D01*
X164691614Y-72677715D01*
X164668571Y-72665974D01*
X164598917Y-72630483D01*
X164548123Y-72582511D01*
X164531328Y-72514690D01*
X164553865Y-72448555D01*
X164598917Y-72409516D01*
X164691610Y-72362287D01*
X164733638Y-72331752D01*
X164857213Y-72241971D01*
X164857215Y-72241968D01*
X164857219Y-72241966D01*
X165001966Y-72097219D01*
X165001968Y-72097215D01*
X165001971Y-72097213D01*
X165068307Y-72005908D01*
X165122287Y-71931610D01*
X165215220Y-71749219D01*
X165278477Y-71554534D01*
X165310500Y-71352352D01*
X165310500Y-71147648D01*
X165278477Y-70945466D01*
X165215220Y-70750781D01*
X165215218Y-70750778D01*
X165215218Y-70750776D01*
X165181503Y-70684607D01*
X165122287Y-70568390D01*
X165114556Y-70557749D01*
X165001971Y-70402786D01*
X164857213Y-70258028D01*
X164691614Y-70137715D01*
X164685006Y-70134348D01*
X164598917Y-70090483D01*
X164548123Y-70042511D01*
X164531328Y-69974690D01*
X164553865Y-69908555D01*
X164598917Y-69869516D01*
X164691610Y-69822287D01*
X164712770Y-69806913D01*
X164857213Y-69701971D01*
X164857215Y-69701968D01*
X164857219Y-69701966D01*
X165001966Y-69557219D01*
X165001968Y-69557215D01*
X165001971Y-69557213D01*
X165054732Y-69484590D01*
X165122287Y-69391610D01*
X165215220Y-69209219D01*
X165278477Y-69014534D01*
X165310500Y-68812352D01*
X165310500Y-68607648D01*
X165278477Y-68405466D01*
X165215220Y-68210781D01*
X165215218Y-68210778D01*
X165215218Y-68210776D01*
X165181503Y-68144607D01*
X165122287Y-68028390D01*
X165114556Y-68017749D01*
X165001971Y-67862786D01*
X164857213Y-67718028D01*
X164691614Y-67597715D01*
X164685006Y-67594348D01*
X164598917Y-67550483D01*
X164548123Y-67502511D01*
X164531328Y-67434690D01*
X164553865Y-67368555D01*
X164598917Y-67329516D01*
X164691610Y-67282287D01*
X164712770Y-67266913D01*
X164857213Y-67161971D01*
X164857215Y-67161968D01*
X164857219Y-67161966D01*
X165001966Y-67017219D01*
X165001968Y-67017215D01*
X165001971Y-67017213D01*
X165054732Y-66944590D01*
X165122287Y-66851610D01*
X165215220Y-66669219D01*
X165278477Y-66474534D01*
X165310500Y-66272352D01*
X165310500Y-66067648D01*
X165278477Y-65865466D01*
X165215220Y-65670781D01*
X165215218Y-65670778D01*
X165215218Y-65670776D01*
X165181503Y-65604607D01*
X165122287Y-65488390D01*
X165114556Y-65477749D01*
X165001971Y-65322786D01*
X164857213Y-65178028D01*
X164691614Y-65057715D01*
X164685006Y-65054348D01*
X164598917Y-65010483D01*
X164548123Y-64962511D01*
X164531328Y-64894690D01*
X164553865Y-64828555D01*
X164598917Y-64789516D01*
X164691610Y-64742287D01*
X164712770Y-64726913D01*
X164857213Y-64621971D01*
X164857215Y-64621968D01*
X164857219Y-64621966D01*
X165001966Y-64477219D01*
X165001968Y-64477215D01*
X165001971Y-64477213D01*
X165054732Y-64404590D01*
X165122287Y-64311610D01*
X165215220Y-64129219D01*
X165278477Y-63934534D01*
X165310500Y-63732352D01*
X165310500Y-63527648D01*
X165278477Y-63325466D01*
X165278476Y-63325464D01*
X165215218Y-63130776D01*
X165162847Y-63027994D01*
X165122287Y-62948390D01*
X165084935Y-62896979D01*
X165001971Y-62782786D01*
X164857213Y-62638028D01*
X164691614Y-62517715D01*
X164652715Y-62497895D01*
X164598917Y-62470483D01*
X164548123Y-62422511D01*
X164531328Y-62354690D01*
X164553865Y-62288555D01*
X164598917Y-62249516D01*
X164691610Y-62202287D01*
X164719439Y-62182068D01*
X164857213Y-62081971D01*
X164857215Y-62081968D01*
X164857219Y-62081966D01*
X165001966Y-61937219D01*
X165019302Y-61913358D01*
X165074630Y-61870690D01*
X165144244Y-61864709D01*
X165206040Y-61897313D01*
X165230102Y-61929937D01*
X165232181Y-61934017D01*
X165232184Y-61934021D01*
X165361752Y-62112358D01*
X165361756Y-62112363D01*
X165517636Y-62268243D01*
X165517641Y-62268247D01*
X165643930Y-62360000D01*
X165695978Y-62397815D01*
X165824375Y-62463237D01*
X165892393Y-62497895D01*
X165892396Y-62497896D01*
X165997221Y-62531955D01*
X166102049Y-62566015D01*
X166319778Y-62600500D01*
X166319779Y-62600500D01*
X166540221Y-62600500D01*
X166540222Y-62600500D01*
X166757951Y-62566015D01*
X166967606Y-62497895D01*
X167164022Y-62397815D01*
X167342365Y-62268242D01*
X167392536Y-62218070D01*
X167453857Y-62184586D01*
X167523548Y-62189570D01*
X167579482Y-62231441D01*
X167596398Y-62262419D01*
X167626202Y-62342328D01*
X167626206Y-62342335D01*
X167712452Y-62457544D01*
X167712455Y-62457547D01*
X167827664Y-62543793D01*
X167827671Y-62543797D01*
X167962517Y-62594091D01*
X167962516Y-62594091D01*
X167969444Y-62594835D01*
X168022127Y-62600500D01*
X169917872Y-62600499D01*
X169977483Y-62594091D01*
X170112331Y-62543796D01*
X170227546Y-62457546D01*
X170313796Y-62342331D01*
X170364091Y-62207483D01*
X170370500Y-62147873D01*
X170370499Y-60252128D01*
X170364091Y-60192517D01*
X170344525Y-60140059D01*
X170313797Y-60057671D01*
X170313793Y-60057664D01*
X170227547Y-59942455D01*
X170227544Y-59942452D01*
X170112335Y-59856206D01*
X170112328Y-59856202D01*
X169977482Y-59805908D01*
X169977483Y-59805908D01*
X169917883Y-59799501D01*
X169917881Y-59799500D01*
X169917873Y-59799500D01*
X169917864Y-59799500D01*
X168022129Y-59799500D01*
X168022123Y-59799501D01*
X167962516Y-59805908D01*
X167827671Y-59856202D01*
X167827664Y-59856206D01*
X167712455Y-59942452D01*
X167712452Y-59942455D01*
X167626206Y-60057664D01*
X167626203Y-60057669D01*
X167596398Y-60137581D01*
X167554526Y-60193514D01*
X167489062Y-60217931D01*
X167420789Y-60203079D01*
X167392535Y-60181928D01*
X167342363Y-60131756D01*
X167342358Y-60131752D01*
X167164025Y-60002187D01*
X167164024Y-60002186D01*
X167164022Y-60002185D01*
X167046791Y-59942452D01*
X166967606Y-59902104D01*
X166967603Y-59902103D01*
X166757952Y-59833985D01*
X166649086Y-59816742D01*
X166540222Y-59799500D01*
X166319778Y-59799500D01*
X166247201Y-59810995D01*
X166102047Y-59833985D01*
X165892396Y-59902103D01*
X165892393Y-59902104D01*
X165695974Y-60002187D01*
X165517641Y-60131752D01*
X165517636Y-60131756D01*
X165361756Y-60287636D01*
X165298473Y-60374738D01*
X165243143Y-60417403D01*
X165173529Y-60423382D01*
X165111734Y-60390776D01*
X165097841Y-60374743D01*
X165001966Y-60242781D01*
X164857219Y-60098034D01*
X164857213Y-60098028D01*
X164691614Y-59977715D01*
X164622406Y-59942452D01*
X164598917Y-59930483D01*
X164548123Y-59882511D01*
X164531328Y-59814690D01*
X164553865Y-59748555D01*
X164598917Y-59709516D01*
X164691610Y-59662287D01*
X164817973Y-59570480D01*
X164857213Y-59541971D01*
X164857215Y-59541968D01*
X164857219Y-59541966D01*
X165001966Y-59397219D01*
X165001968Y-59397215D01*
X165001971Y-59397213D01*
X165092613Y-59272453D01*
X165122287Y-59231610D01*
X165215220Y-59049219D01*
X165278477Y-58854534D01*
X165310500Y-58652352D01*
X165310500Y-58447648D01*
X165278477Y-58245466D01*
X165215220Y-58050781D01*
X165215218Y-58050778D01*
X165215218Y-58050776D01*
X165169451Y-57960955D01*
X165156555Y-57892286D01*
X165182831Y-57827546D01*
X165192245Y-57816989D01*
X165591520Y-57417716D01*
X165670577Y-57280784D01*
X165711501Y-57128057D01*
X165711501Y-56969942D01*
X165711501Y-56962347D01*
X165711500Y-56962329D01*
X165711500Y-52969895D01*
X165711500Y-52969893D01*
X165670577Y-52817166D01*
X165670577Y-52817165D01*
X165623880Y-52736284D01*
X165591520Y-52680234D01*
X165479716Y-52568430D01*
X165479715Y-52568429D01*
X165475385Y-52564099D01*
X165475374Y-52564089D01*
X160605819Y-47694534D01*
X160572334Y-47633211D01*
X160569500Y-47606853D01*
X160569500Y-46860475D01*
X160589185Y-46793436D01*
X160641989Y-46747681D01*
X160711147Y-46737737D01*
X160731820Y-46742545D01*
X160765458Y-46753475D01*
X160765461Y-46753475D01*
X160765466Y-46753477D01*
X160967648Y-46785500D01*
X160967649Y-46785500D01*
X161172351Y-46785500D01*
X161172352Y-46785500D01*
X161374534Y-46753477D01*
X161569219Y-46690220D01*
X161751610Y-46597287D01*
X161844590Y-46529732D01*
X161917213Y-46476971D01*
X161917215Y-46476968D01*
X161917219Y-46476966D01*
X162061966Y-46332219D01*
X162061968Y-46332215D01*
X162061971Y-46332213D01*
X162182284Y-46166614D01*
X162182285Y-46166613D01*
X162182287Y-46166610D01*
X162229516Y-46073917D01*
X162277489Y-46023123D01*
X162345310Y-46006328D01*
X162411445Y-46028865D01*
X162450485Y-46073919D01*
X162497715Y-46166614D01*
X162618028Y-46332213D01*
X162762786Y-46476971D01*
X162917749Y-46589556D01*
X162928390Y-46597287D01*
X163044607Y-46656503D01*
X163110776Y-46690218D01*
X163110778Y-46690218D01*
X163110781Y-46690220D01*
X163201502Y-46719697D01*
X163305465Y-46753477D01*
X163406557Y-46769488D01*
X163507648Y-46785500D01*
X163507649Y-46785500D01*
X163712351Y-46785500D01*
X163712352Y-46785500D01*
X163914534Y-46753477D01*
X164109219Y-46690220D01*
X164291610Y-46597287D01*
X164384590Y-46529732D01*
X164457213Y-46476971D01*
X164457215Y-46476968D01*
X164457219Y-46476966D01*
X164601966Y-46332219D01*
X164601968Y-46332215D01*
X164601971Y-46332213D01*
X164654732Y-46259590D01*
X164722287Y-46166610D01*
X164815220Y-45984219D01*
X164878477Y-45789534D01*
X164910500Y-45587352D01*
X164910500Y-45382648D01*
X164878477Y-45180466D01*
X164815220Y-44985781D01*
X164815218Y-44985778D01*
X164815218Y-44985776D01*
X164769515Y-44896080D01*
X164722287Y-44803390D01*
X164714556Y-44792749D01*
X164601971Y-44637786D01*
X164457213Y-44493028D01*
X164291613Y-44372715D01*
X164291612Y-44372714D01*
X164291610Y-44372713D01*
X164234653Y-44343691D01*
X164109223Y-44279781D01*
X163914534Y-44216522D01*
X163726526Y-44186745D01*
X163712352Y-44184500D01*
X163507648Y-44184500D01*
X163493474Y-44186745D01*
X163305465Y-44216522D01*
X163110776Y-44279781D01*
X162928386Y-44372715D01*
X162762786Y-44493028D01*
X162618028Y-44637786D01*
X162497715Y-44803386D01*
X162450485Y-44896080D01*
X162402510Y-44946876D01*
X162334689Y-44963671D01*
X162268554Y-44941134D01*
X162229515Y-44896080D01*
X162228883Y-44894840D01*
X162182287Y-44803390D01*
X162174556Y-44792749D01*
X162061971Y-44637786D01*
X161917213Y-44493028D01*
X161751613Y-44372715D01*
X161751612Y-44372714D01*
X161751610Y-44372713D01*
X161694653Y-44343691D01*
X161569223Y-44279781D01*
X161374534Y-44216522D01*
X161186526Y-44186745D01*
X161172352Y-44184500D01*
X160967648Y-44184500D01*
X160953474Y-44186745D01*
X160765465Y-44216522D01*
X160570776Y-44279781D01*
X160388386Y-44372715D01*
X160222781Y-44493033D01*
X160222775Y-44493038D01*
X160220191Y-44495622D01*
X160158862Y-44529097D01*
X160089171Y-44524101D01*
X160044843Y-44495607D01*
X158552798Y-43003563D01*
X158519313Y-42942240D01*
X158522547Y-42877566D01*
X158563553Y-42751368D01*
X158583705Y-42624126D01*
X158600500Y-42518097D01*
X158600500Y-42281902D01*
X158563553Y-42048631D01*
X158490566Y-41824003D01*
X158383342Y-41613566D01*
X158244517Y-41422490D01*
X158077510Y-41255483D01*
X157886433Y-41116657D01*
X157886429Y-41116655D01*
X157675996Y-41009433D01*
X157451368Y-40936446D01*
X157218097Y-40899500D01*
X157218092Y-40899500D01*
X156981908Y-40899500D01*
X156981903Y-40899500D01*
X156748631Y-40936446D01*
X156524003Y-41009433D01*
X156313566Y-41116657D01*
X156204550Y-41195862D01*
X156122490Y-41255483D01*
X156122488Y-41255485D01*
X156122487Y-41255485D01*
X155955485Y-41422487D01*
X155955485Y-41422488D01*
X155955483Y-41422490D01*
X155895862Y-41504550D01*
X155816657Y-41613566D01*
X155709433Y-41824003D01*
X155636446Y-42048631D01*
X155599500Y-42281902D01*
X155599500Y-42518097D01*
X155636447Y-42751369D01*
X155636447Y-42751372D01*
X155677450Y-42877564D01*
X155679445Y-42947405D01*
X155647200Y-43003563D01*
X154523201Y-44127562D01*
X154523193Y-44127570D01*
X154520286Y-44130478D01*
X154520284Y-44130480D01*
X154408480Y-44242284D01*
X154386832Y-44279780D01*
X154380757Y-44290301D01*
X154380756Y-44290303D01*
X154368016Y-44312370D01*
X154329423Y-44379215D01*
X154288499Y-44531943D01*
X154288499Y-44531945D01*
X154288499Y-44700046D01*
X154288500Y-44700059D01*
X154288500Y-48538531D01*
X154268815Y-48605570D01*
X154216011Y-48651325D01*
X154146853Y-48661269D01*
X154083297Y-48632244D01*
X154076819Y-48626212D01*
X153982363Y-48531756D01*
X153982358Y-48531752D01*
X153804025Y-48402187D01*
X153804024Y-48402186D01*
X153804022Y-48402185D01*
X153686791Y-48342452D01*
X153607606Y-48302104D01*
X153607603Y-48302103D01*
X153397952Y-48233985D01*
X153289086Y-48216742D01*
X153180222Y-48199500D01*
X152959778Y-48199500D01*
X152887201Y-48210995D01*
X152742047Y-48233985D01*
X152532396Y-48302103D01*
X152532393Y-48302104D01*
X152335974Y-48402187D01*
X152157641Y-48531752D01*
X152157636Y-48531756D01*
X152107463Y-48581929D01*
X152046140Y-48615413D01*
X151976448Y-48610428D01*
X151920515Y-48568557D01*
X151903601Y-48537580D01*
X151873797Y-48457671D01*
X151873793Y-48457664D01*
X151787547Y-48342455D01*
X151787544Y-48342452D01*
X151672335Y-48256206D01*
X151672328Y-48256202D01*
X151537482Y-48205908D01*
X151537483Y-48205908D01*
X151477883Y-48199501D01*
X151477881Y-48199500D01*
X151477873Y-48199500D01*
X151477864Y-48199500D01*
X149582129Y-48199500D01*
X149582123Y-48199501D01*
X149522516Y-48205908D01*
X149387671Y-48256202D01*
X149387664Y-48256206D01*
X149272455Y-48342452D01*
X149272452Y-48342455D01*
X149186206Y-48457664D01*
X149186202Y-48457671D01*
X149135908Y-48592517D01*
X149129501Y-48652116D01*
X149129500Y-48652135D01*
X149129500Y-50547870D01*
X149129501Y-50547876D01*
X149135908Y-50607483D01*
X149186202Y-50742328D01*
X149186206Y-50742335D01*
X149272452Y-50857544D01*
X149272455Y-50857547D01*
X149387664Y-50943793D01*
X149387671Y-50943797D01*
X149522517Y-50994091D01*
X149522516Y-50994091D01*
X149529444Y-50994835D01*
X149582127Y-51000500D01*
X151477872Y-51000499D01*
X151537483Y-50994091D01*
X151672331Y-50943796D01*
X151787546Y-50857546D01*
X151873796Y-50742331D01*
X151901429Y-50668243D01*
X151903601Y-50662420D01*
X151945471Y-50606486D01*
X152010936Y-50582068D01*
X152079209Y-50596919D01*
X152107464Y-50618071D01*
X152157636Y-50668243D01*
X152157641Y-50668247D01*
X152259603Y-50742326D01*
X152335978Y-50797815D01*
X152464375Y-50863237D01*
X152532393Y-50897895D01*
X152532396Y-50897896D01*
X152637221Y-50931955D01*
X152742049Y-50966015D01*
X152959778Y-51000500D01*
X152959779Y-51000500D01*
X153180221Y-51000500D01*
X153180222Y-51000500D01*
X153397951Y-50966015D01*
X153607606Y-50897895D01*
X153804022Y-50797815D01*
X153982365Y-50668242D01*
X154076819Y-50573788D01*
X154138142Y-50540303D01*
X154207834Y-50545287D01*
X154263767Y-50587159D01*
X154288184Y-50652623D01*
X154288500Y-50661469D01*
X154288500Y-51917330D01*
X154288499Y-51917348D01*
X154288499Y-52083054D01*
X154288498Y-52083054D01*
X154288499Y-52083057D01*
X154329423Y-52235785D01*
X154342123Y-52257781D01*
X154376642Y-52317570D01*
X154408479Y-52372715D01*
X154527349Y-52491585D01*
X154527355Y-52491590D01*
X154653181Y-52617416D01*
X154686666Y-52678739D01*
X154689500Y-52705097D01*
X154689500Y-53705001D01*
X154689501Y-53705019D01*
X154700000Y-53807796D01*
X154700001Y-53807799D01*
X154716818Y-53858548D01*
X154755186Y-53974334D01*
X154847288Y-54123656D01*
X154971344Y-54247712D01*
X155120666Y-54339814D01*
X155287203Y-54394999D01*
X155389991Y-54405500D01*
X156590008Y-54405499D01*
X156692797Y-54394999D01*
X156859334Y-54339814D01*
X157008656Y-54247712D01*
X157132712Y-54123656D01*
X157224814Y-53974334D01*
X157251955Y-53892427D01*
X157291726Y-53834984D01*
X157356242Y-53808161D01*
X157425018Y-53820476D01*
X157469977Y-53858547D01*
X157538030Y-53952213D01*
X157538034Y-53952219D01*
X157682786Y-54096971D01*
X157837749Y-54209556D01*
X157848390Y-54217287D01*
X157929499Y-54258614D01*
X158030776Y-54310218D01*
X158030778Y-54310218D01*
X158030781Y-54310220D01*
X158105818Y-54334601D01*
X158225465Y-54373477D01*
X158326557Y-54389488D01*
X158427648Y-54405500D01*
X158427649Y-54405500D01*
X158632351Y-54405500D01*
X158632352Y-54405500D01*
X158834534Y-54373477D01*
X159029219Y-54310220D01*
X159211610Y-54217287D01*
X159340482Y-54123657D01*
X159377213Y-54096971D01*
X159377215Y-54096968D01*
X159377219Y-54096966D01*
X159521966Y-53952219D01*
X159521968Y-53952215D01*
X159521971Y-53952213D01*
X159642284Y-53786614D01*
X159642283Y-53786614D01*
X159642287Y-53786610D01*
X159689516Y-53693917D01*
X159737489Y-53643123D01*
X159805310Y-53626328D01*
X159871445Y-53648865D01*
X159910483Y-53693917D01*
X159954348Y-53780006D01*
X159957715Y-53786614D01*
X160078028Y-53952213D01*
X160222786Y-54096971D01*
X160377749Y-54209556D01*
X160388390Y-54217287D01*
X160469499Y-54258614D01*
X160570776Y-54310218D01*
X160570778Y-54310218D01*
X160570781Y-54310220D01*
X160645818Y-54334601D01*
X160765465Y-54373477D01*
X160866557Y-54389488D01*
X160967648Y-54405500D01*
X160967649Y-54405500D01*
X161172351Y-54405500D01*
X161172352Y-54405500D01*
X161374534Y-54373477D01*
X161569219Y-54310220D01*
X161751610Y-54217287D01*
X161880482Y-54123657D01*
X161917213Y-54096971D01*
X161917215Y-54096968D01*
X161917219Y-54096966D01*
X162061966Y-53952219D01*
X162061968Y-53952215D01*
X162061971Y-53952213D01*
X162182284Y-53786614D01*
X162182283Y-53786614D01*
X162182287Y-53786610D01*
X162229516Y-53693917D01*
X162277489Y-53643123D01*
X162345310Y-53626328D01*
X162411445Y-53648865D01*
X162450483Y-53693917D01*
X162494348Y-53780006D01*
X162497715Y-53786614D01*
X162618028Y-53952213D01*
X162618034Y-53952219D01*
X162762781Y-54096966D01*
X162928390Y-54217287D01*
X162941793Y-54224116D01*
X162992589Y-54272088D01*
X163009500Y-54334601D01*
X163009500Y-54619139D01*
X162989815Y-54686178D01*
X162937011Y-54731933D01*
X162910123Y-54740040D01*
X162910206Y-54740385D01*
X162905468Y-54741522D01*
X162710778Y-54804781D01*
X162528386Y-54897715D01*
X162362786Y-55018028D01*
X162218028Y-55162786D01*
X162097715Y-55328386D01*
X162004781Y-55510776D01*
X161941522Y-55705465D01*
X161909500Y-55907648D01*
X161909500Y-56112351D01*
X161941522Y-56314534D01*
X162004782Y-56509226D01*
X162050547Y-56599044D01*
X162063443Y-56667713D01*
X162037166Y-56732453D01*
X162027743Y-56743019D01*
X157875246Y-60895517D01*
X157813923Y-60929002D01*
X157744231Y-60924018D01*
X157688298Y-60882146D01*
X157665092Y-60827236D01*
X157658477Y-60785466D01*
X157595220Y-60590781D01*
X157595218Y-60590778D01*
X157595218Y-60590776D01*
X157561503Y-60524607D01*
X157502287Y-60408390D01*
X157477837Y-60374737D01*
X157381971Y-60242786D01*
X157237213Y-60098028D01*
X157071614Y-59977715D01*
X157002406Y-59942452D01*
X156978917Y-59930483D01*
X156928123Y-59882511D01*
X156911328Y-59814690D01*
X156933865Y-59748555D01*
X156978917Y-59709516D01*
X157071610Y-59662287D01*
X157197973Y-59570480D01*
X157237213Y-59541971D01*
X157237215Y-59541968D01*
X157237219Y-59541966D01*
X157381966Y-59397219D01*
X157381968Y-59397215D01*
X157381971Y-59397213D01*
X157472613Y-59272453D01*
X157502287Y-59231610D01*
X157595220Y-59049219D01*
X157658477Y-58854534D01*
X157690500Y-58652352D01*
X157690500Y-58447648D01*
X157658477Y-58245466D01*
X157595220Y-58050781D01*
X157595218Y-58050778D01*
X157595218Y-58050776D01*
X157549451Y-57960955D01*
X157502287Y-57868390D01*
X157494556Y-57857749D01*
X157381971Y-57702786D01*
X157237219Y-57558034D01*
X157237211Y-57558028D01*
X157143547Y-57489978D01*
X157100882Y-57434649D01*
X157094903Y-57365036D01*
X157127508Y-57303240D01*
X157177426Y-57271955D01*
X157259334Y-57244814D01*
X157408656Y-57152712D01*
X157532712Y-57028656D01*
X157624814Y-56879334D01*
X157679999Y-56712797D01*
X157690500Y-56610009D01*
X157690499Y-55409992D01*
X157679999Y-55307203D01*
X157624814Y-55140666D01*
X157532712Y-54991344D01*
X157408656Y-54867288D01*
X157259334Y-54775186D01*
X157092797Y-54720001D01*
X157092795Y-54720000D01*
X156990010Y-54709500D01*
X154989998Y-54709500D01*
X154989981Y-54709501D01*
X154887203Y-54720000D01*
X154887200Y-54720001D01*
X154720668Y-54775185D01*
X154720663Y-54775187D01*
X154571342Y-54867289D01*
X154447289Y-54991342D01*
X154355187Y-55140663D01*
X154355186Y-55140666D01*
X154300001Y-55307203D01*
X154300001Y-55307204D01*
X154300000Y-55307204D01*
X154289500Y-55409983D01*
X154289500Y-56610001D01*
X154289501Y-56610018D01*
X154300000Y-56712796D01*
X154300001Y-56712799D01*
X154355185Y-56879331D01*
X154355186Y-56879334D01*
X154447288Y-57028656D01*
X154571344Y-57152712D01*
X154720666Y-57244814D01*
X154802570Y-57271954D01*
X154860015Y-57311727D01*
X154886838Y-57376243D01*
X154874523Y-57445018D01*
X154836451Y-57489978D01*
X154742787Y-57558028D01*
X154742782Y-57558032D01*
X154598028Y-57702786D01*
X154477715Y-57868386D01*
X154384781Y-58050776D01*
X154321522Y-58245465D01*
X154289500Y-58447648D01*
X154289500Y-58652351D01*
X154321522Y-58854534D01*
X154384781Y-59049223D01*
X154430548Y-59139044D01*
X154471448Y-59219315D01*
X154477715Y-59231613D01*
X154598028Y-59397213D01*
X154742786Y-59541971D01*
X154897749Y-59654556D01*
X154908390Y-59662287D01*
X154999840Y-59708883D01*
X155001080Y-59709515D01*
X155051876Y-59757490D01*
X155068671Y-59825311D01*
X155046134Y-59891446D01*
X155001080Y-59930485D01*
X154908386Y-59977715D01*
X154742786Y-60098028D01*
X154598028Y-60242786D01*
X154477713Y-60408388D01*
X154433576Y-60495011D01*
X154385601Y-60545806D01*
X154317780Y-60562601D01*
X154251646Y-60540063D01*
X154212607Y-60495009D01*
X154197814Y-60465976D01*
X154068247Y-60287641D01*
X154068243Y-60287636D01*
X153912363Y-60131756D01*
X153912358Y-60131752D01*
X153734025Y-60002187D01*
X153734024Y-60002186D01*
X153734022Y-60002185D01*
X153616791Y-59942452D01*
X153537606Y-59902104D01*
X153537603Y-59902103D01*
X153327952Y-59833985D01*
X153219086Y-59816742D01*
X153110222Y-59799500D01*
X152889778Y-59799500D01*
X152817201Y-59810995D01*
X152672047Y-59833985D01*
X152462396Y-59902103D01*
X152462393Y-59902104D01*
X152265974Y-60002187D01*
X152087641Y-60131752D01*
X152087636Y-60131756D01*
X152037463Y-60181929D01*
X151976140Y-60215413D01*
X151906448Y-60210428D01*
X151850515Y-60168557D01*
X151833601Y-60137580D01*
X151803797Y-60057671D01*
X151803793Y-60057664D01*
X151717547Y-59942455D01*
X151717544Y-59942452D01*
X151602335Y-59856206D01*
X151602328Y-59856202D01*
X151467482Y-59805908D01*
X151467483Y-59805908D01*
X151407883Y-59799501D01*
X151407881Y-59799500D01*
X151407873Y-59799500D01*
X151407864Y-59799500D01*
X149512129Y-59799500D01*
X149512123Y-59799501D01*
X149452516Y-59805908D01*
X149317671Y-59856202D01*
X149317664Y-59856206D01*
X149202455Y-59942452D01*
X149202452Y-59942455D01*
X149116206Y-60057664D01*
X149116202Y-60057671D01*
X149065908Y-60192517D01*
X149060505Y-60242780D01*
X149059501Y-60252123D01*
X149059500Y-60252135D01*
X148800000Y-60252135D01*
X148800000Y-35852135D01*
X149159500Y-35852135D01*
X149159500Y-37747870D01*
X149159501Y-37747876D01*
X149165908Y-37807483D01*
X149216202Y-37942328D01*
X149216206Y-37942335D01*
X149302452Y-38057544D01*
X149302455Y-38057547D01*
X149417664Y-38143793D01*
X149417671Y-38143797D01*
X149552517Y-38194091D01*
X149552516Y-38194091D01*
X149559444Y-38194835D01*
X149612127Y-38200500D01*
X151507872Y-38200499D01*
X151567483Y-38194091D01*
X151702331Y-38143796D01*
X151817546Y-38057546D01*
X151903796Y-37942331D01*
X151916296Y-37908816D01*
X151933601Y-37862420D01*
X151975471Y-37806486D01*
X152040936Y-37782068D01*
X152109209Y-37796919D01*
X152137464Y-37818071D01*
X152187636Y-37868243D01*
X152187641Y-37868247D01*
X152274621Y-37931441D01*
X152365978Y-37997815D01*
X152494375Y-38063237D01*
X152562393Y-38097895D01*
X152562396Y-38097896D01*
X152667221Y-38131955D01*
X152772049Y-38166015D01*
X152989778Y-38200500D01*
X152989779Y-38200500D01*
X153210221Y-38200500D01*
X153210222Y-38200500D01*
X153427951Y-38166015D01*
X153637606Y-38097895D01*
X153834022Y-37997815D01*
X154012365Y-37868242D01*
X154168242Y-37712365D01*
X154297815Y-37534022D01*
X154397895Y-37337606D01*
X154466015Y-37127951D01*
X154498383Y-36923590D01*
X155894500Y-36923590D01*
X155894500Y-37876409D01*
X155900772Y-37956109D01*
X155948128Y-38132840D01*
X155950446Y-38141492D01*
X156037576Y-38312494D01*
X156083778Y-38369549D01*
X156158354Y-38461645D01*
X156232930Y-38522034D01*
X156307506Y-38582424D01*
X156478508Y-38669554D01*
X156663889Y-38719227D01*
X156743598Y-38725500D01*
X156743606Y-38725500D01*
X157696394Y-38725500D01*
X157696402Y-38725500D01*
X157776111Y-38719227D01*
X157961492Y-38669554D01*
X158132494Y-38582424D01*
X158281645Y-38461645D01*
X158402424Y-38312494D01*
X158468080Y-38183636D01*
X158516054Y-38132840D01*
X158583875Y-38116045D01*
X158650010Y-38138582D01*
X158678879Y-38167041D01*
X158748965Y-38263505D01*
X158896495Y-38411035D01*
X159065286Y-38533670D01*
X159152701Y-38578210D01*
X159251179Y-38628387D01*
X159251181Y-38628387D01*
X159251184Y-38628389D01*
X159357545Y-38662948D01*
X159449610Y-38692862D01*
X159655676Y-38725500D01*
X159655681Y-38725500D01*
X159864324Y-38725500D01*
X160070389Y-38692862D01*
X160142123Y-38669554D01*
X160268816Y-38628389D01*
X160454714Y-38533670D01*
X160623505Y-38411035D01*
X160771035Y-38263505D01*
X160893670Y-38094714D01*
X160919515Y-38043990D01*
X160967489Y-37993194D01*
X161035310Y-37976398D01*
X161101445Y-37998935D01*
X161140485Y-38043990D01*
X161166328Y-38094712D01*
X161218882Y-38167045D01*
X161288965Y-38263505D01*
X161436495Y-38411035D01*
X161605286Y-38533670D01*
X161692701Y-38578210D01*
X161791179Y-38628387D01*
X161791181Y-38628387D01*
X161791184Y-38628389D01*
X161897545Y-38662948D01*
X161989610Y-38692862D01*
X162195676Y-38725500D01*
X162195681Y-38725500D01*
X162404324Y-38725500D01*
X162527548Y-38705983D01*
X162596841Y-38714937D01*
X162650293Y-38759934D01*
X162670933Y-38826685D01*
X162652208Y-38893999D01*
X162634627Y-38916137D01*
X162085339Y-39465425D01*
X162024016Y-39498910D01*
X162021850Y-39499361D01*
X161866508Y-39530261D01*
X161866498Y-39530264D01*
X161720827Y-39590602D01*
X161720814Y-39590609D01*
X161589711Y-39678210D01*
X161589707Y-39678213D01*
X161478213Y-39789707D01*
X161478210Y-39789711D01*
X161390609Y-39920814D01*
X161390602Y-39920827D01*
X161330264Y-40066498D01*
X161330261Y-40066510D01*
X161299500Y-40221153D01*
X161299500Y-40378846D01*
X161330261Y-40533489D01*
X161330264Y-40533501D01*
X161390602Y-40679172D01*
X161390609Y-40679185D01*
X161478210Y-40810288D01*
X161478213Y-40810292D01*
X161504909Y-40836988D01*
X161538394Y-40898311D01*
X161533410Y-40968003D01*
X161491538Y-41023936D01*
X161473524Y-41035153D01*
X161313568Y-41116655D01*
X161179896Y-41213774D01*
X161122490Y-41255483D01*
X161122488Y-41255485D01*
X161122487Y-41255485D01*
X160955485Y-41422487D01*
X160955485Y-41422488D01*
X160955483Y-41422490D01*
X160895862Y-41504550D01*
X160816657Y-41613566D01*
X160709433Y-41824003D01*
X160636446Y-42048631D01*
X160599500Y-42281902D01*
X160599500Y-42518097D01*
X160636446Y-42751368D01*
X160709433Y-42975996D01*
X160816657Y-43186433D01*
X160955483Y-43377510D01*
X161122490Y-43544517D01*
X161313567Y-43683343D01*
X161412991Y-43734002D01*
X161524003Y-43790566D01*
X161524005Y-43790566D01*
X161524008Y-43790568D01*
X161612476Y-43819313D01*
X161748631Y-43863553D01*
X161981903Y-43900500D01*
X161981908Y-43900500D01*
X162218097Y-43900500D01*
X162451368Y-43863553D01*
X162484468Y-43852798D01*
X162675992Y-43790568D01*
X162886433Y-43683343D01*
X163077510Y-43544517D01*
X163244517Y-43377510D01*
X163383343Y-43186433D01*
X163490568Y-42975992D01*
X163563553Y-42751368D01*
X163563554Y-42751362D01*
X163600500Y-42518097D01*
X163600500Y-42281902D01*
X163563553Y-42048631D01*
X163490566Y-41824003D01*
X163383342Y-41613566D01*
X163244517Y-41422490D01*
X163077510Y-41255483D01*
X162886433Y-41116657D01*
X162886429Y-41116655D01*
X162726476Y-41035154D01*
X162675680Y-40987179D01*
X162658885Y-40919358D01*
X162681423Y-40853223D01*
X162695085Y-40836992D01*
X162721789Y-40810289D01*
X162809394Y-40679179D01*
X162869737Y-40533497D01*
X162889113Y-40436085D01*
X162900638Y-40378150D01*
X162933023Y-40316239D01*
X162934518Y-40314716D01*
X163412416Y-39836819D01*
X163439343Y-39822115D01*
X163465162Y-39805523D01*
X163471362Y-39804631D01*
X163473739Y-39803334D01*
X163500097Y-39800500D01*
X163620234Y-39800500D01*
X163687273Y-39820185D01*
X163689125Y-39821398D01*
X163820814Y-39909390D01*
X163820827Y-39909397D01*
X163966498Y-39969735D01*
X163966503Y-39969737D01*
X164121153Y-40000499D01*
X164121156Y-40000500D01*
X164121158Y-40000500D01*
X164278844Y-40000500D01*
X164278845Y-40000499D01*
X164433497Y-39969737D01*
X164551592Y-39920821D01*
X164579172Y-39909397D01*
X164579172Y-39909396D01*
X164579179Y-39909394D01*
X164710289Y-39821789D01*
X164821789Y-39710289D01*
X164909394Y-39579179D01*
X164969737Y-39433497D01*
X165000500Y-39278842D01*
X165000500Y-39121158D01*
X165000500Y-39121155D01*
X165000499Y-39121153D01*
X164969738Y-38966510D01*
X164969737Y-38966503D01*
X164911823Y-38826685D01*
X164909397Y-38820827D01*
X164909390Y-38820814D01*
X164821789Y-38689711D01*
X164821786Y-38689707D01*
X164710292Y-38578213D01*
X164710288Y-38578210D01*
X164579185Y-38490609D01*
X164579172Y-38490602D01*
X164433501Y-38430264D01*
X164433489Y-38430261D01*
X164278845Y-38399500D01*
X164278842Y-38399500D01*
X164121158Y-38399500D01*
X164121155Y-38399500D01*
X163966510Y-38430261D01*
X163966498Y-38430264D01*
X163820827Y-38490602D01*
X163820814Y-38490609D01*
X163689125Y-38578602D01*
X163622447Y-38599480D01*
X163620234Y-38599500D01*
X163286659Y-38599500D01*
X163279058Y-38599499D01*
X163279057Y-38599499D01*
X163274393Y-38599499D01*
X163237207Y-38588577D01*
X163207364Y-38579814D01*
X163207361Y-38579810D01*
X163207355Y-38579809D01*
X163178753Y-38546795D01*
X163161609Y-38527010D01*
X163161608Y-38527006D01*
X163161604Y-38527001D01*
X163155888Y-38487221D01*
X163151665Y-38457852D01*
X163151667Y-38457846D01*
X163151667Y-38457842D01*
X163163722Y-38431451D01*
X163180690Y-38394296D01*
X163186722Y-38387818D01*
X163311035Y-38263505D01*
X163433670Y-38094714D01*
X163528389Y-37908816D01*
X163592862Y-37710389D01*
X163604957Y-37634025D01*
X163625500Y-37504324D01*
X163625500Y-37295675D01*
X163592862Y-37089610D01*
X163534575Y-36910222D01*
X163528389Y-36891184D01*
X163528387Y-36891181D01*
X163528386Y-36891176D01*
X163502923Y-36841202D01*
X163502922Y-36841201D01*
X163476721Y-36789778D01*
X164929500Y-36789778D01*
X164929500Y-37010221D01*
X164963985Y-37227952D01*
X165032103Y-37437603D01*
X165032104Y-37437606D01*
X165132187Y-37634025D01*
X165261752Y-37812358D01*
X165261756Y-37812363D01*
X165417636Y-37968243D01*
X165417641Y-37968247D01*
X165573192Y-38081260D01*
X165595978Y-38097815D01*
X165724375Y-38163237D01*
X165792393Y-38197895D01*
X165792396Y-38197896D01*
X165897221Y-38231955D01*
X166002049Y-38266015D01*
X166219778Y-38300500D01*
X166219779Y-38300500D01*
X166440221Y-38300500D01*
X166440222Y-38300500D01*
X166657951Y-38266015D01*
X166867606Y-38197895D01*
X167064022Y-38097815D01*
X167242365Y-37968242D01*
X167292536Y-37918070D01*
X167353857Y-37884586D01*
X167423548Y-37889570D01*
X167479482Y-37931441D01*
X167496398Y-37962419D01*
X167526202Y-38042328D01*
X167526206Y-38042335D01*
X167612452Y-38157544D01*
X167612455Y-38157547D01*
X167727664Y-38243793D01*
X167727671Y-38243797D01*
X167862517Y-38294091D01*
X167862516Y-38294091D01*
X167869444Y-38294835D01*
X167922127Y-38300500D01*
X169817872Y-38300499D01*
X169877483Y-38294091D01*
X170012331Y-38243796D01*
X170127546Y-38157546D01*
X170213796Y-38042331D01*
X170264091Y-37907483D01*
X170270500Y-37847873D01*
X170270499Y-35952128D01*
X170264091Y-35892517D01*
X170262272Y-35887641D01*
X170213797Y-35757671D01*
X170213793Y-35757664D01*
X170127547Y-35642455D01*
X170127544Y-35642452D01*
X170012335Y-35556206D01*
X170012328Y-35556202D01*
X169877482Y-35505908D01*
X169877483Y-35505908D01*
X169817883Y-35499501D01*
X169817881Y-35499500D01*
X169817873Y-35499500D01*
X169817864Y-35499500D01*
X167922129Y-35499500D01*
X167922123Y-35499501D01*
X167862516Y-35505908D01*
X167727671Y-35556202D01*
X167727664Y-35556206D01*
X167612455Y-35642452D01*
X167612452Y-35642455D01*
X167526206Y-35757664D01*
X167526203Y-35757669D01*
X167496398Y-35837581D01*
X167454526Y-35893514D01*
X167389062Y-35917931D01*
X167320789Y-35903079D01*
X167292535Y-35881928D01*
X167242363Y-35831756D01*
X167242358Y-35831752D01*
X167064025Y-35702187D01*
X167064024Y-35702186D01*
X167064022Y-35702185D01*
X167001096Y-35670122D01*
X166867606Y-35602104D01*
X166867603Y-35602103D01*
X166657952Y-35533985D01*
X166549086Y-35516742D01*
X166440222Y-35499500D01*
X166219778Y-35499500D01*
X166147201Y-35510995D01*
X166002047Y-35533985D01*
X165792396Y-35602103D01*
X165792393Y-35602104D01*
X165595974Y-35702187D01*
X165417641Y-35831752D01*
X165417636Y-35831756D01*
X165261756Y-35987636D01*
X165261752Y-35987641D01*
X165132187Y-36165974D01*
X165032104Y-36362393D01*
X165032103Y-36362396D01*
X164963985Y-36572047D01*
X164929500Y-36789778D01*
X163476721Y-36789778D01*
X163433669Y-36705285D01*
X163311035Y-36536495D01*
X163163505Y-36388965D01*
X162994714Y-36266330D01*
X162986987Y-36262393D01*
X162808820Y-36171612D01*
X162610389Y-36107137D01*
X162404324Y-36074500D01*
X162404319Y-36074500D01*
X162195681Y-36074500D01*
X162195676Y-36074500D01*
X161989610Y-36107137D01*
X161791179Y-36171612D01*
X161605285Y-36266330D01*
X161436493Y-36388966D01*
X161288966Y-36536493D01*
X161166330Y-36705285D01*
X161140485Y-36756010D01*
X161092510Y-36806806D01*
X161024690Y-36823601D01*
X160958555Y-36801064D01*
X160919515Y-36756010D01*
X160893669Y-36705285D01*
X160771035Y-36536495D01*
X160623505Y-36388965D01*
X160454714Y-36266330D01*
X160446987Y-36262393D01*
X160268820Y-36171612D01*
X160070389Y-36107137D01*
X159864324Y-36074500D01*
X159864319Y-36074500D01*
X159655681Y-36074500D01*
X159655676Y-36074500D01*
X159449610Y-36107137D01*
X159251179Y-36171612D01*
X159065285Y-36266330D01*
X158896493Y-36388966D01*
X158748966Y-36536493D01*
X158678883Y-36632954D01*
X158623552Y-36675619D01*
X158553939Y-36681598D01*
X158492144Y-36648992D01*
X158468080Y-36616363D01*
X158402425Y-36487507D01*
X158281645Y-36338354D01*
X158187839Y-36262393D01*
X158132494Y-36217576D01*
X157961492Y-36130446D01*
X157961491Y-36130445D01*
X157961490Y-36130445D01*
X157776109Y-36080772D01*
X157696409Y-36074500D01*
X157696402Y-36074500D01*
X156743598Y-36074500D01*
X156743590Y-36074500D01*
X156663890Y-36080772D01*
X156478509Y-36130445D01*
X156307507Y-36217575D01*
X156158354Y-36338354D01*
X156037575Y-36487507D01*
X155950445Y-36658509D01*
X155900772Y-36843890D01*
X155894500Y-36923590D01*
X154498383Y-36923590D01*
X154500500Y-36910222D01*
X154500500Y-36689778D01*
X154466015Y-36472049D01*
X154397895Y-36262394D01*
X154397895Y-36262393D01*
X154330663Y-36130446D01*
X154297815Y-36065978D01*
X154239501Y-35985715D01*
X154168247Y-35887641D01*
X154168243Y-35887636D01*
X154012363Y-35731756D01*
X154012358Y-35731752D01*
X153834025Y-35602187D01*
X153834024Y-35602186D01*
X153834022Y-35602185D01*
X153743784Y-35556206D01*
X153637606Y-35502104D01*
X153637603Y-35502103D01*
X153427952Y-35433985D01*
X153319086Y-35416742D01*
X153210222Y-35399500D01*
X152989778Y-35399500D01*
X152917201Y-35410995D01*
X152772047Y-35433985D01*
X152562396Y-35502103D01*
X152562393Y-35502104D01*
X152365974Y-35602187D01*
X152187641Y-35731752D01*
X152187636Y-35731756D01*
X152137463Y-35781929D01*
X152076140Y-35815413D01*
X152006448Y-35810428D01*
X151950515Y-35768557D01*
X151933601Y-35737580D01*
X151903797Y-35657671D01*
X151903793Y-35657664D01*
X151817547Y-35542455D01*
X151817544Y-35542452D01*
X151702335Y-35456206D01*
X151702328Y-35456202D01*
X151567482Y-35405908D01*
X151567483Y-35405908D01*
X151507883Y-35399501D01*
X151507881Y-35399500D01*
X151507873Y-35399500D01*
X151507864Y-35399500D01*
X149612129Y-35399500D01*
X149612123Y-35399501D01*
X149552516Y-35405908D01*
X149417671Y-35456202D01*
X149417664Y-35456206D01*
X149302455Y-35542452D01*
X149302452Y-35542455D01*
X149216206Y-35657664D01*
X149216202Y-35657671D01*
X149165908Y-35792517D01*
X149159501Y-35852116D01*
X149159500Y-35852135D01*
X148800000Y-35852135D01*
X148800000Y-34251362D01*
X148819685Y-34184323D01*
X148836319Y-34163681D01*
X148863681Y-34136319D01*
X148925004Y-34102834D01*
X148951362Y-34100000D01*
X170576000Y-34100000D01*
X170643039Y-34119685D01*
G37*
%TD.AperFunction*%
%TA.AperFunction,NonConductor*%
G36*
X156622433Y-43822547D02*
G01*
X156748632Y-43863553D01*
X156836110Y-43877408D01*
X156981903Y-43900500D01*
X156981908Y-43900500D01*
X157218097Y-43900500D01*
X157324126Y-43883705D01*
X157451368Y-43863553D01*
X157577566Y-43822547D01*
X157647404Y-43820553D01*
X157703562Y-43852797D01*
X157976187Y-44125423D01*
X158009672Y-44186745D01*
X158004688Y-44256437D01*
X157962816Y-44312370D01*
X157944802Y-44323587D01*
X157848388Y-44372713D01*
X157682786Y-44493028D01*
X157538028Y-44637786D01*
X157417715Y-44803386D01*
X157370485Y-44896080D01*
X157322510Y-44946876D01*
X157254689Y-44963671D01*
X157188554Y-44941134D01*
X157149515Y-44896080D01*
X157148883Y-44894840D01*
X157102287Y-44803390D01*
X157094556Y-44792749D01*
X156981971Y-44637786D01*
X156837213Y-44493028D01*
X156671613Y-44372715D01*
X156671612Y-44372714D01*
X156671610Y-44372713D01*
X156489219Y-44279780D01*
X156364841Y-44239367D01*
X156307165Y-44199929D01*
X156279967Y-44135571D01*
X156291882Y-44066724D01*
X156315475Y-44033758D01*
X156496437Y-43852796D01*
X156557758Y-43819313D01*
X156622433Y-43822547D01*
G37*
%TD.AperFunction*%
%TA.AperFunction,NonConductor*%
G36*
X159321614Y-46622592D02*
G01*
X159361872Y-46679698D01*
X159368500Y-46719697D01*
X159368500Y-47714903D01*
X159348815Y-47781942D01*
X159296011Y-47827697D01*
X159226853Y-47837641D01*
X159163297Y-47808616D01*
X159156819Y-47802584D01*
X158351416Y-46997181D01*
X158317931Y-46935858D01*
X158322915Y-46866166D01*
X158364787Y-46810233D01*
X158430251Y-46785816D01*
X158439097Y-46785500D01*
X158632351Y-46785500D01*
X158632352Y-46785500D01*
X158834534Y-46753477D01*
X159029219Y-46690220D01*
X159188206Y-46609211D01*
X159256874Y-46596316D01*
X159321614Y-46622592D01*
G37*
%TD.AperFunction*%
%TA.AperFunction,NonConductor*%
G36*
X155627265Y-46738295D02*
G01*
X155631147Y-46737737D01*
X155651820Y-46742545D01*
X155685458Y-46753475D01*
X155685461Y-46753475D01*
X155685466Y-46753477D01*
X155887648Y-46785500D01*
X155887649Y-46785500D01*
X156092351Y-46785500D01*
X156092352Y-46785500D01*
X156294534Y-46753477D01*
X156308842Y-46748827D01*
X156378682Y-46746831D01*
X156434842Y-46779077D01*
X161248584Y-51592819D01*
X161282069Y-51654142D01*
X161277085Y-51723834D01*
X161235213Y-51779767D01*
X161169749Y-51804184D01*
X161160903Y-51804500D01*
X160967648Y-51804500D01*
X160943329Y-51808351D01*
X160765465Y-51836522D01*
X160570776Y-51899781D01*
X160388386Y-51992715D01*
X160222786Y-52113028D01*
X160222782Y-52113032D01*
X160078034Y-52257781D01*
X160078032Y-52257783D01*
X159957715Y-52423386D01*
X159910485Y-52516080D01*
X159862510Y-52566876D01*
X159794689Y-52583671D01*
X159728554Y-52561134D01*
X159689515Y-52516080D01*
X159683865Y-52504992D01*
X159642287Y-52423390D01*
X159621019Y-52394117D01*
X159521968Y-52257783D01*
X159377213Y-52113028D01*
X159211613Y-51992715D01*
X159211612Y-51992714D01*
X159211610Y-51992713D01*
X159151898Y-51962288D01*
X159029223Y-51899781D01*
X158834534Y-51836522D01*
X158659995Y-51808878D01*
X158632352Y-51804500D01*
X158427648Y-51804500D01*
X158403329Y-51808351D01*
X158225465Y-51836522D01*
X158030776Y-51899781D01*
X157848386Y-51992715D01*
X157682786Y-52113028D01*
X157682782Y-52113032D01*
X157538034Y-52257781D01*
X157538032Y-52257783D01*
X157469978Y-52351451D01*
X157414648Y-52394117D01*
X157345035Y-52400096D01*
X157283240Y-52367490D01*
X157251954Y-52317570D01*
X157224814Y-52235666D01*
X157132712Y-52086344D01*
X157008656Y-51962288D01*
X156859334Y-51870186D01*
X156692797Y-51815001D01*
X156692795Y-51815000D01*
X156590016Y-51804500D01*
X156590009Y-51804500D01*
X155613500Y-51804500D01*
X155546461Y-51784815D01*
X155500706Y-51732011D01*
X155489500Y-51680500D01*
X155489500Y-46860475D01*
X155497426Y-46833481D01*
X155502224Y-46805762D01*
X155507137Y-46800408D01*
X155509185Y-46793436D01*
X155530445Y-46775013D01*
X155549469Y-46754287D01*
X155556497Y-46752439D01*
X155561989Y-46747681D01*
X155589836Y-46743676D01*
X155617043Y-46736526D01*
X155627265Y-46738295D01*
G37*
%TD.AperFunction*%
%TA.AperFunction,NonConductor*%
G36*
X164447474Y-54193644D02*
G01*
X164496169Y-54243749D01*
X164510500Y-54301617D01*
X164510500Y-54634525D01*
X164503020Y-54659998D01*
X164499187Y-54686271D01*
X164493328Y-54693003D01*
X164490815Y-54701564D01*
X164470753Y-54718947D01*
X164453323Y-54738979D01*
X164444754Y-54741475D01*
X164438011Y-54747319D01*
X164411733Y-54751097D01*
X164386242Y-54758525D01*
X164373255Y-54756630D01*
X164368853Y-54757263D01*
X164354133Y-54753839D01*
X164351318Y-54753429D01*
X164349738Y-54752961D01*
X164314534Y-54741523D01*
X164307099Y-54740345D01*
X164299318Y-54738043D01*
X164276495Y-54723309D01*
X164251950Y-54711667D01*
X164247574Y-54704637D01*
X164240619Y-54700147D01*
X164229385Y-54675413D01*
X164215030Y-54652349D01*
X164215149Y-54644069D01*
X164211726Y-54636531D01*
X164210500Y-54619139D01*
X164210500Y-54334601D01*
X164230185Y-54267562D01*
X164278206Y-54224116D01*
X164291610Y-54217287D01*
X164313614Y-54201299D01*
X164379420Y-54177819D01*
X164447474Y-54193644D01*
G37*
%TD.AperFunction*%
%TA.AperFunction,NonConductor*%
G36*
X156857855Y-75081628D02*
G01*
X156888684Y-75144329D01*
X156890500Y-75165475D01*
X156890500Y-75796116D01*
X156888332Y-75803498D01*
X156889593Y-75811090D01*
X156878625Y-75836557D01*
X156870815Y-75863155D01*
X156865000Y-75868193D01*
X156861956Y-75875262D01*
X156838962Y-75890755D01*
X156818011Y-75908910D01*
X156810394Y-75910005D01*
X156804013Y-75914305D01*
X156776295Y-75914908D01*
X156748853Y-75918854D01*
X156741022Y-75915675D01*
X156734160Y-75915825D01*
X156701744Y-75901864D01*
X156697565Y-75899305D01*
X156681610Y-75887713D01*
X156663892Y-75878685D01*
X156659744Y-75876145D01*
X156639421Y-75853696D01*
X156617406Y-75832903D01*
X156616205Y-75828052D01*
X156612852Y-75824349D01*
X156600500Y-75770397D01*
X156600500Y-75178806D01*
X156620185Y-75111767D01*
X156672989Y-75066012D01*
X156689957Y-75060163D01*
X156689899Y-75059983D01*
X156694540Y-75058475D01*
X156728182Y-75047543D01*
X156798022Y-75045548D01*
X156857855Y-75081628D01*
G37*
%TD.AperFunction*%
%TA.AperFunction,NonConductor*%
G36*
X156827472Y-78095909D02*
G01*
X156876168Y-78146014D01*
X156890500Y-78203883D01*
X156890500Y-78608902D01*
X156870815Y-78675941D01*
X156854181Y-78696583D01*
X156444842Y-79105922D01*
X156383519Y-79139407D01*
X156318843Y-79136172D01*
X156304534Y-79131523D01*
X156304528Y-79131522D01*
X156102352Y-79099500D01*
X155897648Y-79099500D01*
X155857102Y-79105922D01*
X155695464Y-79131523D01*
X155695457Y-79131524D01*
X155661817Y-79142455D01*
X155591976Y-79144450D01*
X155532144Y-79108369D01*
X155501316Y-79045668D01*
X155499500Y-79024524D01*
X155499500Y-78401097D01*
X155508144Y-78371656D01*
X155514668Y-78341670D01*
X155518422Y-78336654D01*
X155519185Y-78334058D01*
X155535819Y-78313416D01*
X155555158Y-78294077D01*
X155616481Y-78260592D01*
X155681157Y-78263827D01*
X155695466Y-78268477D01*
X155897648Y-78300500D01*
X155897649Y-78300500D01*
X156102351Y-78300500D01*
X156102352Y-78300500D01*
X156304534Y-78268477D01*
X156499219Y-78205220D01*
X156681610Y-78112287D01*
X156693612Y-78103566D01*
X156759418Y-78080085D01*
X156827472Y-78095909D01*
G37*
%TD.AperFunction*%
%TA.AperFunction,NonConductor*%
G36*
X161855768Y-58715980D02*
G01*
X161911701Y-58757852D01*
X161934907Y-58812764D01*
X161941522Y-58854534D01*
X162004782Y-59049226D01*
X162050547Y-59139044D01*
X162063443Y-59207713D01*
X162037166Y-59272453D01*
X162027744Y-59283019D01*
X161740286Y-59570478D01*
X161628481Y-59682282D01*
X161628477Y-59682287D01*
X161586371Y-59755219D01*
X161586371Y-59755220D01*
X161549423Y-59819214D01*
X161545465Y-59833985D01*
X161508499Y-59971943D01*
X161508499Y-59971945D01*
X161508499Y-60140046D01*
X161508500Y-60140059D01*
X161508500Y-62042330D01*
X161508499Y-62042348D01*
X161508499Y-62208054D01*
X161508498Y-62208054D01*
X161549424Y-62360789D01*
X161549425Y-62360790D01*
X161566578Y-62390499D01*
X161566579Y-62390500D01*
X161628477Y-62497712D01*
X161628481Y-62497717D01*
X161747349Y-62616585D01*
X161747354Y-62616589D01*
X162027744Y-62896980D01*
X162061229Y-62958302D01*
X162056245Y-63027994D01*
X162050548Y-63040954D01*
X162004779Y-63130780D01*
X162004779Y-63130781D01*
X161941523Y-63325461D01*
X161941523Y-63325464D01*
X161909500Y-63527648D01*
X161909500Y-63732351D01*
X161941523Y-63934535D01*
X161941523Y-63934538D01*
X162004779Y-64129218D01*
X162004779Y-64129219D01*
X162050547Y-64219045D01*
X162063443Y-64287714D01*
X162037166Y-64352455D01*
X162027743Y-64363020D01*
X159630286Y-66760478D01*
X159518481Y-66872282D01*
X159518479Y-66872285D01*
X159468361Y-66959094D01*
X159468359Y-66959096D01*
X159439425Y-67009209D01*
X159439424Y-67009210D01*
X159439423Y-67009215D01*
X159398499Y-67161943D01*
X159398499Y-67161945D01*
X159398499Y-67330046D01*
X159398500Y-67330059D01*
X159398500Y-82544921D01*
X159378815Y-82611960D01*
X159326011Y-82657715D01*
X159256853Y-82667659D01*
X159218205Y-82655406D01*
X159099223Y-82594782D01*
X159099222Y-82594781D01*
X159099219Y-82594780D01*
X159019035Y-82568726D01*
X158904534Y-82531522D01*
X158729995Y-82503878D01*
X158702352Y-82499500D01*
X158497648Y-82499500D01*
X158473329Y-82503351D01*
X158295465Y-82531522D01*
X158100776Y-82594781D01*
X157918386Y-82687715D01*
X157752786Y-82808028D01*
X157608028Y-82952786D01*
X157487715Y-83118386D01*
X157394781Y-83300776D01*
X157367431Y-83384953D01*
X157327993Y-83442628D01*
X157263634Y-83469826D01*
X157194788Y-83457911D01*
X157143312Y-83410667D01*
X157125500Y-83346634D01*
X157125500Y-81085448D01*
X157139015Y-81029153D01*
X157205218Y-80899223D01*
X157205218Y-80899222D01*
X157205220Y-80899219D01*
X157268477Y-80704534D01*
X157300500Y-80502352D01*
X157300500Y-80297648D01*
X157268477Y-80095466D01*
X157263825Y-80081151D01*
X157261832Y-80011312D01*
X157294075Y-79955158D01*
X157849506Y-79399728D01*
X157849511Y-79399724D01*
X157859714Y-79389520D01*
X157859716Y-79389520D01*
X157971520Y-79277716D01*
X158050577Y-79140784D01*
X158091500Y-78988057D01*
X158091500Y-62429097D01*
X158111185Y-62362058D01*
X158127819Y-62341416D01*
X159924209Y-60545026D01*
X161724755Y-58744479D01*
X161786076Y-58710996D01*
X161855768Y-58715980D01*
G37*
%TD.AperFunction*%
%TA.AperFunction,NonConductor*%
G36*
X155637265Y-81653295D02*
G01*
X155641147Y-81652737D01*
X155661820Y-81657545D01*
X155695458Y-81668475D01*
X155695461Y-81668475D01*
X155695466Y-81668477D01*
X155819899Y-81688185D01*
X155883032Y-81718114D01*
X155919964Y-81777425D01*
X155924500Y-81810658D01*
X155924500Y-86025500D01*
X155904815Y-86092539D01*
X155852011Y-86138294D01*
X155800501Y-86149500D01*
X155623808Y-86149501D01*
X155623807Y-86147887D01*
X155561981Y-86133180D01*
X155513540Y-86082829D01*
X155499500Y-86025517D01*
X155499500Y-81775475D01*
X155507426Y-81748481D01*
X155512224Y-81720762D01*
X155517137Y-81715408D01*
X155519185Y-81708436D01*
X155540445Y-81690013D01*
X155559469Y-81669287D01*
X155566497Y-81667439D01*
X155571989Y-81662681D01*
X155599836Y-81658676D01*
X155627043Y-81651526D01*
X155637265Y-81653295D01*
G37*
%TD.AperFunction*%
%TA.AperFunction,NonConductor*%
G36*
X157330703Y-84159652D02*
G01*
X157367431Y-84215047D01*
X157394781Y-84299221D01*
X157487715Y-84481613D01*
X157608028Y-84647213D01*
X157752786Y-84791971D01*
X157907749Y-84904556D01*
X157918390Y-84912287D01*
X158008054Y-84957973D01*
X158100776Y-85005218D01*
X158100778Y-85005218D01*
X158100781Y-85005220D01*
X158205137Y-85039127D01*
X158295465Y-85068477D01*
X158396557Y-85084488D01*
X158497648Y-85100500D01*
X158497649Y-85100500D01*
X158702351Y-85100500D01*
X158702352Y-85100500D01*
X158904534Y-85068477D01*
X159099219Y-85005220D01*
X159218206Y-84944592D01*
X159286874Y-84931697D01*
X159351614Y-84957973D01*
X159391872Y-85015079D01*
X159398500Y-85055078D01*
X159398500Y-86040302D01*
X159378815Y-86107341D01*
X159326011Y-86153096D01*
X159256853Y-86163040D01*
X159255102Y-86162775D01*
X159225550Y-86158094D01*
X159171287Y-86149500D01*
X158958713Y-86149500D01*
X158910042Y-86157208D01*
X158748760Y-86182753D01*
X158546585Y-86248444D01*
X158357179Y-86344951D01*
X158185215Y-86469889D01*
X158071673Y-86583431D01*
X158010350Y-86616915D01*
X157940658Y-86611931D01*
X157884725Y-86570059D01*
X157867810Y-86539082D01*
X157818797Y-86407671D01*
X157818793Y-86407664D01*
X157732547Y-86292455D01*
X157732544Y-86292452D01*
X157617335Y-86206206D01*
X157617328Y-86206202D01*
X157482482Y-86155908D01*
X157482483Y-86155908D01*
X157422883Y-86149501D01*
X157422881Y-86149500D01*
X157422873Y-86149500D01*
X157422865Y-86149500D01*
X157249500Y-86149500D01*
X157182461Y-86129815D01*
X157136706Y-86077011D01*
X157125500Y-86025500D01*
X157125500Y-84253365D01*
X157145185Y-84186326D01*
X157197989Y-84140571D01*
X157267147Y-84130627D01*
X157330703Y-84159652D01*
G37*
%TD.AperFunction*%
M02*
